<mxfile host="65bd71144e" scale="6" border="0">
    <diagram id="giPBR-PSN5Ov7oWPih2C" name="Page-1">
        <mxGraphModel dx="360" dy="786" grid="1" gridSize="10" guides="1" tooltips="1" connect="1" arrows="1" fold="1" page="1" pageScale="1" pageWidth="850" pageHeight="1100" math="1" shadow="0">
            <root>
                <mxCell id="0"/>
                <mxCell id="1" parent="0"/>
                <mxCell id="2" value="" style="group" vertex="1" connectable="0" parent="1">
                    <mxGeometry x="915.87" y="84.37" width="95" height="60.00000000000001" as="geometry"/>
                </mxCell>
                <mxCell id="3" value="" style="rounded=0;whiteSpace=wrap;html=1;fillColor=#f8cecc;strokeColor=#b85450;" vertex="1" parent="2">
                    <mxGeometry y="7.105427357601002e-15" width="25" height="20" as="geometry"/>
                </mxCell>
                <mxCell id="4" value="" style="rounded=0;whiteSpace=wrap;html=1;fillColor=#d5e8d4;strokeColor=#82b366;" vertex="1" parent="2">
                    <mxGeometry y="20.000000000000007" width="25" height="20" as="geometry"/>
                </mxCell>
                <mxCell id="5" value="" style="rounded=0;whiteSpace=wrap;html=1;fillColor=#d5e8d4;strokeColor=#82b366;" vertex="1" parent="2">
                    <mxGeometry y="40.00000000000001" width="25" height="20" as="geometry"/>
                </mxCell>
                <mxCell id="6" value="" style="rounded=0;whiteSpace=wrap;html=1;fillColor=#f8cecc;strokeColor=#b85450;" vertex="1" parent="2">
                    <mxGeometry x="35" y="7.105427357601002e-15" width="25" height="20" as="geometry"/>
                </mxCell>
                <mxCell id="7" value="" style="rounded=0;whiteSpace=wrap;html=1;fillColor=#f8cecc;strokeColor=#b85450;" vertex="1" parent="2">
                    <mxGeometry x="35" y="20.000000000000007" width="25" height="20" as="geometry"/>
                </mxCell>
                <mxCell id="8" value="" style="rounded=0;whiteSpace=wrap;html=1;fillColor=#d5e8d4;strokeColor=#82b366;" vertex="1" parent="2">
                    <mxGeometry x="35" y="40.00000000000001" width="25" height="20" as="geometry"/>
                </mxCell>
                <mxCell id="9" value="" style="rounded=0;whiteSpace=wrap;html=1;fillColor=#f8cecc;strokeColor=#b85450;" vertex="1" parent="2">
                    <mxGeometry x="70" width="25" height="20" as="geometry"/>
                </mxCell>
                <mxCell id="10" value="" style="rounded=0;whiteSpace=wrap;html=1;fillColor=#f8cecc;strokeColor=#b85450;" vertex="1" parent="2">
                    <mxGeometry x="70" y="20.000000000000007" width="25" height="20" as="geometry"/>
                </mxCell>
                <mxCell id="11" value="" style="rounded=0;whiteSpace=wrap;html=1;fillColor=#f8cecc;strokeColor=#b85450;" vertex="1" parent="2">
                    <mxGeometry x="70" y="40.00000000000001" width="25" height="20" as="geometry"/>
                </mxCell>
                <mxCell id="12" value="" style="endArrow=classic;html=1;strokeWidth=3;" edge="1" parent="1">
                    <mxGeometry width="50" height="50" relative="1" as="geometry">
                        <mxPoint x="925.8699999999999" y="154.3699999999999" as="sourcePoint"/>
                        <mxPoint x="925.8699999999999" y="184.3699999999999" as="targetPoint"/>
                    </mxGeometry>
                </mxCell>
                <mxCell id="13" value="" style="endArrow=classic;html=1;strokeWidth=3;" edge="1" parent="1">
                    <mxGeometry width="50" height="50" relative="1" as="geometry">
                        <mxPoint x="963.2600000000002" y="154.3699999999999" as="sourcePoint"/>
                        <mxPoint x="963.2600000000002" y="184.3699999999999" as="targetPoint"/>
                    </mxGeometry>
                </mxCell>
                <mxCell id="14" value="" style="endArrow=classic;html=1;strokeWidth=3;" edge="1" parent="1">
                    <mxGeometry width="50" height="50" relative="1" as="geometry">
                        <mxPoint x="995.8699999999999" y="154.3699999999999" as="sourcePoint"/>
                        <mxPoint x="995.8699999999999" y="184.3699999999999" as="targetPoint"/>
                    </mxGeometry>
                </mxCell>
                <mxCell id="15" value="True positive rate and precision are calculated for each threshold `t`" style="text;html=1;strokeColor=none;fillColor=none;align=center;verticalAlign=middle;whiteSpace=wrap;rounded=0;" vertex="1" parent="1">
                    <mxGeometry x="880" y="195" width="160" height="30" as="geometry"/>
                </mxCell>
                <mxCell id="16" value="$$t_1$$" style="text;html=1;strokeColor=none;fillColor=none;align=center;verticalAlign=middle;whiteSpace=wrap;rounded=0;fontColor=#080808;" vertex="1" parent="1">
                    <mxGeometry x="915.87" y="59.37" width="30" height="20" as="geometry"/>
                </mxCell>
                <mxCell id="17" value="$$t_2$$" style="text;html=1;strokeColor=none;fillColor=none;align=center;verticalAlign=middle;whiteSpace=wrap;rounded=0;fontColor=#080808;" vertex="1" parent="1">
                    <mxGeometry x="948.37" y="59.37" width="30" height="20" as="geometry"/>
                </mxCell>
                <mxCell id="18" value="$$t_3$$" style="text;html=1;strokeColor=none;fillColor=none;align=center;verticalAlign=middle;whiteSpace=wrap;rounded=0;fontColor=#080808;" vertex="1" parent="1">
                    <mxGeometry x="983.87" y="59.37" width="30" height="20" as="geometry"/>
                </mxCell>
                <mxCell id="20" value="" style="shape=image;verticalLabelPosition=bottom;labelBackgroundColor=default;verticalAlign=top;aspect=fixed;imageAspect=0;image=data:image/png,iVBORw0KGgoAAAANSUhEUgAAAjcAAAGwCAIAAADaF9MEAAAAAXNSR0IArs4c6QAAIABJREFUeAHsnQdYFOfWx5elg8bEGpU4lljQGJX4odcbS26M6STmmnJNjBqTq8QomuJgiRhFjRpj1KBRxJIYJVGxZBAUFZCiiI22SAdpAiILSJMy3wMT567A7ju7O1tY/vPMk7zzznnPe85vlvN3ZmdnJCwWEAABEAABEDBWAhJjDQxxgQAIgAAIgAALlcKHAARAAARAwHgJQKWM99ggMhAAARAAAagUPgMgAAIgAALGSwAqZbzHBpGBAAiAAAhApfAZAAEQAAEQMF4CUCnjPTaIDARAAARAoE2qVH19fXZ2tlwuL8UCAiAAAiDQlgnI5fLs7Oz6+npletwmVSo7O1uCBQRAAARAwFQIZGdnm5RKyeVyiUSSnZ3dlv8BgdhBAARAAARKubMOuVxuUipVWloqkUhKS0uVZYV+EAABEACBNkGAWM/b5BU/YlZt4tggSBAAARAAAWI9h0rhQwICIAACIGAwAlApg6HHxCAAAiAAAkQCUCkiIhiAAAiAAAgYjABUymDoMTEIgAAIgACRAFSKiAgGIAACIAACBiMAlTIYekwMAiAAAiBAJACVIiKCAQiAAAiAgMEIQKUMhh4TgwAIgAAIEAlApYiIYAACIAACIGAwAgZWqdDQ0DfeeKNnz54SieT48ePKMISEhDg5OVlbW/fr12/nzp3KzPh+Yla8JRogAAIgAALGTIBYz3X77InTp08vX7782LFjKlQqPT3dzs7Ozc1NJpN5e3tbWloePXpUNVNiVqqHYy8IgAAIgICRECDWc92qFE9BhUotWbJkyJAhvOXcuXPHjh3Lb7baIGbV6ih0ggAIgAAIsCxbU1tffL/mdnFF9j0R1jx5pTZUifXc8Co1fvz4hQsX8kn6+flZWFg8ePCA7+Ea1dXV/DPuuSe945nozRBhEwRAwKgIVNfW3a+uLat6IK98UFJRU3y/pqi8uqCs6k5pVZ68Mqek8nZxxb7w9M9/v/axT9SMpvWjPZe59UPvyx96X57ufek/uxvXD3Y1ru/vinzvl8b1XW7dGfnuzshpOyP+vaNxfadpneoV/nbT+tbP4W/9HO7yc7jL9jCX7WFvNq1vbAujaEbc9f88g7TB3gZUauDAgWvXruWTjIiIkEgkeXl5fA/X8PDwaPa6L6hUM0TYBAFTJVBUXr0/IuPzg9fm7L/yyb4rs5vWWXujZu2Nmtm0tqzyH+1prPJcoW9Z65WVe67iv/Vz+PMbzj+3Jui5NWedVp8dtfrsyO/OPLvqzHCPwGc8Ap9ZGThsZeDQbwMcvw0YvOL0oOWnBy4/PXDZ6aeX+Q9Y6t9/qX9fd5FlQFxRaeZt0PLGFLRZn99wXpsPXttQqXXr1vFJhoeHSySS/Px8vodr4FyqGRBsgkA7IXDzdkmzwtqmN/u5MwOW+g9c1igMQ1YEDP02YMzac39E3z56NfvYtcbV73r28es5x6/nnLjx93ryZu7Jm7mnmta/YnKZmDwmJs8/tnE93bQGxOUFxOUHxOUHxjeuZ+LzzybcOZtwJ6hpPSe7cz6xcb2QWNC43ipIKSh7UKf0De56/ly1AZUSeMVPERwxK0VjtEEABNougctpdwcuO83Jktvh6z5h6X9cud24RjeufzatR65mH7mafbRp5Qt9y1rPFf1mFV9Z0T+bcCcuR56YX3orvyzpTllKQVlKQXlqYXlaYXl60f2MovuZd+/fLq7gvtrJKanMLanMk1fmy6sKSqsKyqoKy6qLyqvlFQ+qHtRV19Y9qKuvq29oaGhouwdCd5ET67nhv5dasmSJo6Mjj2DevHm4e4KngQYItGcC2fcqhn4bQNHM69suFpVXt2cUJpy7gVWqvLz8RtMikUh+/PHHGzduZGVlsSzr7u4+Y8YMjjt3J/rixYtlMpmPjw/uRDfhjyNSAwG1CHy05zJFM6/+dPF+da1aA2HchggYWKWCg4Ob3fIwc+ZMlmVnzpw5ceJEnmNISMioUaOsrKz69u2LX/XyWNAAgfZM4Ex8PkUz/Zf6pxfdb88cTD53A6uUjvgSs9LRvHALAiCgNwJTvcIpmvFkEvQ2IyYyCAFiPdfT91LiJk/MStzp4A0EQEDPBNKL7nN3TOTLq/Q8NabTMwFiPYdK6fmIYDoQAAEygc1nkyiame59iWwKizZOACrVxg8gwgeBdklgyo+hFM38GX27XWbfvpKGSrWv441sQcAECKQWlnP3TdzF3ecmcDhJKUClSISwHwRAwMgI/H45i6KZD3bhcp+RHRjdhAOV0g1XeAUBENAZgW9PxFE0s/ov3N2nM8TG5BgqZUxHA7GAAAgIIPDqTxcpmmFimj9yWsBQmLQ9AlCptnfMEDEItGcCtXX13IP7bhdXtGcO7Sd3qFT7OdbIFARMgQB368TgFafr6/FsVlM4oMQcoFJERDAAARAwIgIBcXkUzby29aIRxYRQdEkAKqVLuvANAiAgNoFfQlIpmllw6LrYjuHPSAlApYz0wCAsEACBVgl4nIynaOb7gMRW96LT9AhApUzvmCIjEDBlAv/9NZqimf0RGaacJHJTIACVUoCBJgiAgNETcNkeRtFMYHy+0UeKAMUhAJUShyO8gAAI6IfAxI0XKJqJSi/Wz3SYxeAEoFIGPwQIAARAQCiB+vqGwStOUzSTgTcfCmXW5u2gUm3+ECIBEGg/BO6WV3OvlaqprW8/WbfzTKFS7fwDgPRBoC0RuJVfRtHMqNVn21LQiFU7AlAp7fhhNAiAgB4JRKQWUTTzrx+C9TgnpjIwAaiUgQ8ApgcBEBBOwD+28cET03ZGCB8Cy7ZOACrV1o8g4geBdkTg18gMimY+PRDdjnJu96lCpdr9RwAAQKDtEFjnL6NoZtWp+LYTMiLVlgBUSluCGA8CIKA3Al/+cZOiGa/gFL3NiIkMTgAqZfBDgABAAASEEpi97wpFM75XsoQOgF3bJwCVavvHEBmAQLsh8NbP4RTNBMThLb3t5pCzLFSqHR1spAoCbZ0A95Pey2l323oiiF84AaiUcFawBAEQMDCBZzwCKZqR5ZUaOA5Mr0cCUCk9wsZUIAACWhCoelDHnUvJKx9o4QZD2xgBqFQbO2AIFwTaLYHbxRUUzQxcfrqhoaHdQmiHiUOl2uFBR8og0CYJRGcUUzQzZu25Nhk9gtaUAFRKU3IYBwIgoF8CAXGNj0eiaEa/02I2AxOAShn4AGB6EAABgQT+iL5N0cwLeNSsQF6mYgaVMpUjiTxAwNQJ/HYpk6KZf+/Ao2ZN/Ug/mh9U6lEe2AIBEDBWAjtDUimaWex7w1gDRFw6IQCV0glWOAUBEBCdwIaARIpmPE7iUbOiozVqh1Apoz48CA4EQIAnsMwvlqKZzWeT+B402gMBqFR7OMrIEQRMgYDrwasUzeyPyDCFZJCDYAJQKcGoYAgCIGBQAtO9L1E0c/x6jkGjwOT6JgCV0jdxzAcCIKAZAcdvAyiaOZtwR7PhGNVGCYijUnK5fN++fZ988sm//vWvsWPHvvnmmytXroyIMNgNo8Ss2ujRQtgg0J4JjFt/nqKZ84lQqfb1KSDWc4lqHnl5eZ9++qmtrW2/fv3ef//9L7/8cvny5a6uruPHj7ezs3N0dPT19VXtQRd7iVnpYlL4BAEQ0CkB7sETCbl4ILpOMRudc2I9J6hUt27dvvrqq7i4uJaZVVZWHjp0yNnZedOmTS336rSHmJVOZ4dzEAABXRAYsqLxil9aYbkunMOn0RIg1nOCShUWFhJzE2JDdKKWATErtbzBGARAwOAE6usbuHOpovJqgweDAPRJgFjPCSqlz1iFz0XMSrgrWIIACBgDgfLqWk6lKmpqjSEexKA3AsR6rrlK3bt378CBA3rLRHEiYlaKxmiDAAgYP4HckkpOpfByKeM/WOJGSKznmqvUzZs3pVKpuOEK9EbMSqAfmIEACBgJgfhcOadSRhIPwtAbAWI9J6tUqZIlLCwMKqW3A4mJQMC0CVzNbHwF4sBlp007TWTXkoAIKmVmZiZtbeH6W06phx5iVnqIAVOAAAiISOBCYgFFM69tvSiiT7hqEwSI9Zx8LvXYY49t2LAhpMXi7e2Nc6k28SFAkCBg/ASOXs2maOajPZeNP1REKC4BEVRq0qRJGzZsaBnWzZs3zczMWvbroYeYlR5iwBQgAAIiEvC+mEbRzPzfr4noE67aBAFiPSefS+3evXvr1q0ts71z586qVata9uuhh5iVHmLAFCAAAiIS2HzmFkUzy4/HiugTrtoEAWI9J6uUEeZJzMoIY0ZIIAACKgisOB5H0cwPZ26psMEukyRArOdQKZM87kgKBNoYgS8OXadoxvtiWhuLG+FqTQAqpTVCOAABENA9gYkbL1A082f0bd1PhRmMiwBUyriOB6IBARBolcCkTcEUzfhdz251LzpNmABUyoQPLlIDAdMhwD14Iiq92HRSQibCCEClhHGCFQiAgEEJPOMRSNGMLA8vlzLoYTDE5IZXKS8vr759+1pbWzs5OV282PoPyw8ePPjss8/a2to++eSTs2bNunv3rmpWxKxUD8deEAABoyJQU1vPnUvdxWs7jOrA6CUYYj1X4x6/SZMmzZw5kw/7448/fuGFF/jNVhu+vr6Wlpbe3t4ymczNzc3e3j4rK6uZJfc8wK1bt6anp4eFhQ0bNuztt99uZtNsk5hVM3tsggAIGDOBgrIqimb6ujP19Q3GHCdi0wUBYj1XQ6VmzZq1dOlSPsqlS5fOmjWL32y14ezsPG/ePH7XkCFD3N3d+U2usWnTpv79+/Od27Ztc3Bw4Df5RnV1Nf/Y2+zsbIlEUlqKiwM8HjRAoA0TSLpTRtHMiO/OtOEcELqmBMRUKXVjqKmpMTc39/Pz4wcuXLhwwoQJ/CbXiIiIsLKy8vf3b2houHPnzoQJE+bOndvMhmVZDw8PyaMLVKolJfSAQFskEJpUSNHM+A0X2mLwiFlLAoZUqdzcXIlEEhERweewdu3aQYMG8Zt848iRIx06dLCwsJBIJC4uLg8ePOB38Q2cS/Eo0AABEyPwZ/Ttxtd2LMdrO0zswApKR1uV2kpaVETBqVRkZCRv4+npOXjwYH6TayQkJPTs2XPjxo0xMTGBgYHDhw//5JNPmtk02yRm1cwemyAAAsZMwPdKFs6ljPkA6TQ2Yj0nfC/VV+XSr18/FdELvOL30UcfTZs2jfcTFhYmkUjy8vL4npYNYlYth6AHBEDAaAnsC0+naGb2vitGGyEC0x0BYj0nqJSWkTk7O7u6uvJOHB0dW9498c4777z33nu8TWRkpEQiyc3N5XtaNohZtRyCHhAAAaMl4BWcQtHMV3/eNNoIEZjuCBDruXoqVVNTc+vWrdraWoERc3ei+/j4yGSyRYsW2dvbZ2Zmsizr7u4+Y8YMzsm+ffssLCx27NiRlpYWHh4+evRoZ2dn1f6JWakejr0gAAJGRWBjYCJFMx4n440qKgSjHwLEei5UpSoqKj755BPzpiUtrfG5xQsWLFi/fj0xDS8vL4qirKysnJycQkNDOfuZM2dOnDiRH7tt27ahQ4fa2tr27Nnzww8/zMnJ4Xe12iBm1eoodIIACBgnAY+T8RTNbAxMNM7wEJVOCRDruVCVWrhw4XPPPRcWFmZvb8+p1MmTJ0eOHKnT6JU5J2albCD6QQAEjJDA4j9uUDSzIzjVCGNDSLomQKznQlWqT58+ly5dYlm2Q4cOnEqlpKR07NhR1wm06p+YVauj0AkCIGCcBObsv0LRzMHLjV8HYGlvBIj1XKhK2dracuLEq9TNmzcfe+wxgwAlZmWQqDApCICAZgTe2RFB0czpWFV39mrmGaOMnwCxngtVqQkTJmzbto07l0pPT2dZdv78+S+//LJBEBCzMkhUmBQEQIAnUFb1IDG/NCG3NC5HHpstv3m75HrWvWtZ965mFl/JKL6cdjcy9W5ESlFYchETk8c9ajYipYgfjkb7IUCs50JVKiIiomPHjvPmzbOxsXFzc5s8ebK9vf3Vq1cNgpKYlUGiwqQg0BYJVNTU5pRUphSUXcko3h+R4RWcsu1c8tZzyT8FJW8JSvrxbNLms0mbz9z64cytTYG3NgYmbghoXL8PSFx/OnHdadk6f9laf5knk7Dmr4TVfyV8dyrh6z9vjll7jhMetf6bdbeiLQJEzFoSINZzoSrFsmxsbOzHH388bNgwR0fHDz/8MDY2VsvgNB5OzEpjzxgIAu2BQENDQ1DCndGeQWqpiLrGQ78N+D/PoDFrz/1j3blx68//8/vz4zdcmLjxwgubgv/1Q/DkzSFTfgx9eUvoKz9dHPndmR/O3GoP5JFjSwLEeq6GSrX0bqgeYlaGCgzzgkCbIOB+LLaZ5Dy76sy49eeneoW/7RX+xaHr7sdil/rFLvOLXX48dsXxuG9PxK08EedxMt7jZPyqU/HfnWo8Z1r9V+P5kyeTsNa/8Yxq3WnZ+tON51gbAhK3BCXF58rbBAoEaXACxHquhkrV1dUdOXJk9erVa9asOXr0qPDf9opOgZiV6DPCIQiYDIGfgpI5iVpxPO5y2t1792saGvBWJ5M5vG0vEWI9F6pScXFx/fv3t7OzG9W02Nvb9+3b11AX/YhZtb0DhYhBQF8EXLaHUTSz2PeGvibEPCCgigCxngtVqTFjxrz55pv37t3jZrt3756Li8vYsWNVTa6zfcSsdDYzHINA2ybQ0NDwzMpAimZu5Ze17UwQvakQINZzoSplY2MTH//IU7bi4uJsbGwMAoqYlUGiwqQgIC6B+9W1f0bfXndatvJE3Irjccv8Gr8rcj8Ws+RIzNd/3vzyj5uL/7ixyPfGpwei+fsUxqw9N2btOee1Qdz6f55B/DraM2i0ZxAnURTNlFW18hY3ceOHNxAQQoBYz4Wq1IgRI86fP6845fnz55955hnFHr21iVnpLRJMBAI6IpB59/7YdZrcz93stohWN1/4IRjfRenowMGtugSI9ZygUqUPF39//2HDhh05ciS7aTly5Mjw4cP9/f3VDUgUe2JWoswCJyBgQAJzf71K0cywlYHL/GI3Bd7afDZpS1DS1nPJ284l/3whxSs4ZWdI6q7QVO+LaXvC0n3C0oNvFcTlyPk1PlfOrQm5jT+t5VZZXim3Vj2oM2BqmBoEFAkQ6zlBpczMzKQPF7Omhdvi24qT6a1NzEpvkWAiEFCLQL686nBU1jp/2dSmG74///2a68Grc3+9+tmB6Dn7oz/Zd2XW3qiPfaI+2nOZOweKzihWyz+MQaDNESDWc4JKhZAWgxAhZmWQqDApCCgjkFpY/n1A4ge7LrV6/U1Z5zMrA3HSowwp+k2GALGeE1TKOEEQszLOsE0mqtq6+sKy6julVXnyypySytvFFVl3K9KL7qcWlgcl3Pn5wt+P2Nn68EE73LN2tgQ1XrP68ezDh+48fPQO9/SdHx4+g4d7DM/GwETFh/F8//CRPH8/led0429IG39J2vR4nrUPH9LDPadnzV8JCw9ff++XyI/2XObWD70vT/e+NN370n92N64f7Gpc398V+f6uyPd+aVzf/SXy3Z2N67SdEdN2Rvx7R+P6TtPK/dD1ba/wt35uXF24dXuYy/awN5vWN7aFvb7t4uvbLr62tXF99afG9ZWm9eUtjc9WeGFTsKIOjfjuzNxfr247l+xxMn5/RMavkRm/Xcr8/XLW4aisP67c/jP69tGr2X7Xs0/cyEkpKDeZzwwSAQFlBIj1XD2VqqioSExMjFFYlE2s035iVjqdvT07j0gp+vzgNcWai7ZAAk8v819/OvHG7ZK6evyEtj3/DSH35gSI9VyoShUWFr7++usPv6L63/+bT6iXbWJWeomifU0ir3gwe1/jS4AU14HLTg9afnrIioCh3wY8szJwuEfgs6vOvLMjwv1YLPeInaVNN08va3rWDve4He6JOyuON95a/e2Jv9eVCg/g4R7Dwz+Mh38eD/dIntVNjzRd8/DZPJ7M30/o4U6nuLOrxtOs07LvTiXsDU/3u559/HrO8es5J278vZ68mXvyZu6ppvWvmNy/YnKZmDwmJs8/Nu900xoQl9e05gfE5QfGN65nmtazCXeCmtZzsjvnZHfOJzauFxILGtdbBcFNa0hSYUhSYWjTejG58GJyYVhyUXhKUURKkbwSd363rz8ZZCuQALGeC1Wp6dOnjxs37sqVK/b29mfPnv3tt98GDx7MMIzAOMQ1I2Yl7nTwxrLsN0ducvo0c29UVHpxPU4I8LEAARAQgwCxngtVqSeffDIqKopl2Y4dOyYlJbEse/LkyX/+859iBKm2D2JWans0rQFF5dXcd0VZdysy797PvHs/o+jvNb3ofnrR/bTC8rTC8tSmNaWgvGktSykoS77z95p0pyzpTtmt/MY1Mb80Kr2Yk6gLiQWmhQrZgAAIGJgAsZ4LVamOHTtmZGSwLEtRVHh4OMuy6enptra2BsmPmJVBotJg0vr6hnx5VUpBoxgk5JYeiMz4KSh589mkTYG3vg9IXOcvW/NXwqpT8SuOx728JXTkd2eGewQ+4xH4zMrAYSsDHb8NGLIiYPCKxmtuA5edfnqZ/4Cl/v2X+itekRO3/eLmEA1yxBAQAAEQUEGAWM+FqtTo0aMDAwNZln3rrbdmzJiRk5OzZMmS/v37q5hbd7uIWeluarE8l1U9WOx7o5/7I1/ziCsqjt82fl009NuAYU2q9szKRnlrXJukbrjH318jPbvqzIjvGteRTeuo1We51Wn1WafVZ59bw61B//z+/MXkQrHShx8QAAEQ4AgQ67lQlTp48OC+fftYlr1+/Xq3bt2kUqmNjY2vr69BQBOzMkhUwieVVz546+dwXpOe8Qgc1agHQWPXnXt21Znlx2NXnohbdSp+zV8J6/xl3wckbgq89ePZpIC4vNSmK3XpTZfvMu/ev11ccbu4IvteRU5JZW5JZb686k5pVUFpFb6oF34sYAkCIGBYAsR6LlSlFNOoqKi4du1aUVGRYqc+28Ss9BmMunM1NDTM8IniHn5z7Fr2g7p6dT3AHgRAAARMhgCxnmuiUganQ8zK4BGqCODXyAyKZp5e5h+VjoffqOCEXSAAAu2CALGeE1RqMWkxCEViVgaJSsikhWXVQ1YEUDTzU1CyEHvYgAAIgIBpEyDWc4JKTVK5vPDCCwbBR8zKIFEJmXRnSCpFM6/+dBG/NxKCCzYgAAImT4BYzwkqZZyAiFkZZ9gsy472DKJoZk9YutFGiMBAAARAQJ8EiPUcKqW/wxGaVMjd13e7uEJ/s2ImEAABEDBiAlApIzo4boevUzSz1C/WiGJCKCAAAiBgUAJQKYPif3TyN7eHUTRzOjbv0W5sgQAIgED7JQCVMqJj/9yaxi+lYrPlRhQTQgEBEAABgxKASomAv7y6tqCs8Y1/t4sbH96aWliedKcsNlt+NfPe1cziKxnFUenFl9LuRqbejUhpfE3DxeTGdzcE32p8ocP5xMa3PJxNuBMQl8d9KSWvwBscRDgocAECIGAaBMRUqV9//XXcuHE9e/bMzMxkWXbLli0nTpwwCCZiVmJFFZcjn/Toi1b5xxpp1nh6mX9DA16CJ9bxgR8QAIE2T4BYz4Xe47djx46uXbt6enra2tqmpaWxLLtv375JkyYZhBAxK1GiqnpQN279eV6Nnl7mP3jF6WErG1/0N2r12f/zDBq/4cLEjRcmbQp+4YfgFzeHTN4cMuXHxjeIv9L0TvHXt118Y1vje8ddfg5/2yt8qlf4Ozsidoc2osMCAiAAAiDAESDWc6Eq5ejoePz4cZZlO3TowKlUXFxcly5dDAKamJUoUZ2ObbxGN9ozCDeOi8ITTkAABECgJQFiPReqUjY2NtyFPl6lkpOTbWxsWk6phx5iVqLE4H4shqKZr/68KYo3OAEBEAABEGhJgFjPhaqUo6Mj9y0Ur1Jbt251cnJqOaUeeohZiRLDnP3RFM2s+StBFG9wAgIgAAIg0JIAsZ4LVam9e/f27t3b19fX3t7+8OHDnp6eXKPllHroIWYlSgwvNN03EZ5isBeUiJIFnIAACICAMRMg1nOhKsWy7O7du/v06WPWtDg4OOzZs8dQmROzEiWw4R6BFM0k3SkTxRucgAAIgAAItCRArOdqqBTnvaioqKCgoOVM+uwhZqV9MOXVtdzdfWVV+HmT9jjhAQRAAARaJ0Cs50JVatWqVampqa1PovdeYlbaR5SYX0rRzHCPQO1dwQMIgAAIgIAyAsR6LlSlhg8fLpVKx4wZs3379sLCQmXz6aefmJX2YVy4VUDRzCs/XdTeFTyAAAiAAAgoI0Cs50JVimXZ+Pj4pUuX9uvXz9LS8tVXX/39998rKgzzBgpiVspwCO//I/o2RTMzfKKED4ElCIAACICAugSI9VwNleLnDg8P//zzz7t169axY0e+U58NYlbaB/NL00t1F/ne0N4VPIAACIAACCgjQKznmqjUjRs3vvrqq969e5vwr3o3BiZSNONxMl4ZWfSDAAiAAAhoT0BMlUpPT/f09HR0dDQ3N3/hhRe8vb3lcsO8hIKYlfbgVp6Io2hmU+At7V3BAwiAAAiAgDICxHou9Fxq7NixUql0xIgRGzduzMnJUTaffvqJWWkfxr93RFA0430RD4fVniU8gAAIgIBSAsR6LlSlli5dGh9vLJe/iFkp5SF4x1s/h1M0sycsXfAIGIIACIAACKhNgFjPhaqU2jPrcgAxK+0n586lTtww8Fmj9onAAwiAAAgYMwFiPSeo1OLFi+/fv8+y7GIli0GSJ2alfVTcgyeCbxn4KRvaJwIPIAACIGDMBIj1nKBSkyZNKikpYVl2kpLFIMkTs9I+qn/9EEzRzDnZHe1dwQMIgAAIgIAyAsR6TlApZX4N20/MSvvwxm+4QNHM1cx72ruCBxAAARAAAWUEiPVcqErNnj27rOyRp4Pfv39/9uzZyibWaT8xK+1n/8e6cxTNxGQ3nkdiAQEQAAEQ0BGfFq61AAAgAElEQVQBYj0XqlJSqbTZo9CLiorMzc11FLdqt8SsVA8Xsve5NUEUzSTklgoxhg0IgAAIgIBmBIj1nKxSpaWlcrnczMwsNTW19OFy7969AwcO9OzZU7OwtBxFzEob/w0NDZ//fo27eyKl4JHTR23cYiwIgAAIgEBLAsR6TlYpMzMzaWuLubm5p6dnyyn10EPMSpsYbhdXcBL17Koz5dW12rjCWBAAARAAAdUEiPWcrFIhISHBwcFmZmZ+fn4hD5fIyMjc3FzVc3N7vby8+vbta21t7eTkdPFi6y/CqK6uXrZsWZ8+faysrPr37+/j46PaMzEr1cNV743PlXMqVYr3H6omhb0gAAIgoDUBYj0nqxQXQ2ZmZkNDg7rx+Pr6Wlpaent7y2QyNzc3e3v7rKyslk5cXFzGjBkTFBSUkZERFRUVERHR0kaxh5iVorG67dOxeRTNvL6tdUFV1xvsQQAEQAAEVBAg1nOCSsXExNTX17MsG6NkUTE3y7LOzs7z5s3jbYYMGeLu7s5vco2AgIBOnToVFxc362+2WV1d/fBLsdLs7GyJRFJaqpNbG36+kELRzMLD15sFgE0QAAEQAAHRCWirUmZmZtytfdy3U2aPLlKpVEXENTU15ubmfn5+vM3ChQsnTJjAb3INV1fXF198kabpXr16DRw48KuvvqqsrGxmw7Ksh4eH5NFFRyrlfiyWopnNZ5NaxoAeEAABEAABcQloq1L8hb5MJYuKcHNzcyUSieLlu7Vr1w4aNKjZkJdfftna2vr111+Piory9/enKKrVn2Hp7Vzq0wPRFM38eimzWZzYBAEQAAEQEJ2AtiqlTUCcSkVGRvJOPD09Bw8ezG9yjZdeesnGxoZ/VdWxY8fMzMxaPZ3iBxKz4i01aLg0PQ39dGyeBmMxBARAAARAQC0CxHpO+F6Kn2z//v0Mw3Cb33zzTadOnf7xj39kZqo64RB4xe/jjz8eMGAAP5FMJpNIJMnJyXxPywYxq5ZDhPdwT524noVnIwlnBksQAAEQ0JAAsZ4LValBgwadP3+eZdnIyEhbW9tdu3a9+eabU6dOVR2Xs7Ozq6srb+Po6Njy7oldu3bZ2tqWl5dzZidOnJBKpYY6l6qrb+i/1J+imXx5FR82GiAAAiAAAjoiIJpK2dracjeRL1myZMaMGSzLxsfHd+3aVXXc3J3oPj4+Mpls0aJF9vb23OmXu7s754Rl2fLycgcHh2nTpiUkJISGhg4cOPDTTz9V7ZaYlerhKvbeLa/mfiz1oK7xzkYsIAACIAACOiVArOdCz6W6det2/XrjzdkjR448cOAAy7Kpqan29vbE6L28vCiKsrKycnJyCg0N5exnzpw5ceJEfmxiYuLkyZNtbW0dHBy+/PJL1SdSLMsSs+I9q9uIy2n8Sa/T6rPqDoQ9CIAACICABgSI9VyoSk2fPt3JyWnOnDl2dnZ3795lWfbkyZPDhg3TICbthxCz0niKv2JyKZp56+dwjT1gIAiAAAiAgHACxHouVKVKSkrmz5/v4uISEBDATb9y5UrTe44f95PeRb43hCOGJQiAAAiAgMYERFMpjSPQxUBiVhpPOt37EkUzPwWpusNQY+cYCAIgAAIg0IwAsZ4LPZdiWbakpOSHH36YM2fOp59+unnzZv4XTs2m1MMmMSuNY3hjWxhFM/sjMjT2gIEgAAIgAALCCRDruVCVio6O7ty5c+/evadOnfr22287ODh06dLl2rVrwkMR0ZKYlcZzcTf4nZPd0dgDBoIACIAACAgnQKznQlXq+eefnzVrVm3t3+9bqq2tnTlz5vjx44WHIqIlMSvN5mpoaHhmZSBFM3E5cs08YBQIgAAIgIBaBIj1XKhK2djYJCYmKs6dkJBga2ur2KO3NjErzSLJvtf4/sMBS/1ravFjKc0QYhQIgAAIqEeAWM+FqlT37t3PnDmjOHlgYGD37t0Ve/TWJmalWSShSYUUzby4OUSz4RgFAiAAAiCgLgFiPReqUgsWLHBwcPD19b19+3Z2dvbhw4cdHBzc3NzUDUgUe2JWms3y66VMimY+2XdFs+EYBQIgAAIgoC4BYj0XqlI1NTULFy60srKSNi3W1taLFi2qrq5WNyBR7IlZaTbLxsBEimZWHI/TbDhGgQAIgAAIqEuAWM+FqhQ3cUVFRWxsbExMTEVFhbqhiGhPzEqzuRb53qBoxis4RbPhGAUCIAACIKAuAWI9J6tURUXF559/3qtXr27duv3nP/8pKipSNwjR7YlZaTbje79EUjRz4kaOZsMxCgRAAARAQF0CxHpOVqmvv/7azs7us88+W7BgQdeuXadNm6ZuEKLbE7PSbMZJm4IpmolMbXxKIRYQAAEQAAE9ECDWc7JK9e/f//Dhw1ysUVFRFhYWdXV1eghdxRTErFSMVbaroaFh8IrTFM1k3r2vzAb9IAACIAAC4hIg1nOySllaWubk/O8imI2Nze3bt8WNUl1vxKzUdciyrLziAffgiepaA2uwBsFjCAiAAAi0UQLEek5WKalUWlhYyOffoUOH9PR0ftMgDWJWGkSVVlhO0cywlYEajMUQEAABEAABzQgQ6zlZpczMzF577bWpDxcLC4spU6Y83CK8UV6zoImjiFkRPbQ0uJp5j6KZf35/vuUu9IAACIAACOiIALGek1VqlspFR3GrdkvMSvXwVvcejsqiaOZtL7z/sFU86AQBEAABnRAg1nOySukkLu2cErPSwP1vTQ+eeH4DzqU0gIchIAACIKAhAWI9h0r9TXZLUBJFM0uOxGhIGsNAAARAAATUJ6CtSs2dO1f1HX2+vr4HDx5UPzCtRhCz0sD7kiMxFM1sO4e39GoAD0NAAARAQEMCxHpOOJdasWLFY4899sorr+zYsePKlSs5OTl3795NSUk5efLkN99889RTT40dOzY2NlbD6DQdRsxKA8efHYimaOa3S5kajMUQEAABEAABzQgQ6zlBpViWLSgoWLdu3bPPPss9Z5b7b6dOnf797383e5eHZiFqMIqYlQY+uccjnbyZq8FYDAEBEAABENCMALGek1WKn7ikpOTmzZuXLl1KSUlpaGjg+/XfIGalQUgDlvpTNHPhVoEGYzEEBEAABEBAMwLEeq6GSmkWgS5GEbPSYNLn1gRRNBORYvhn6WoQPIaAAAiAQBslQKznUKm/j+yQFQEUzWQU4SF+bfSjjrBBAATaJAGolKDDVvWgjnuIX1nVA0EDYAQCIAACICAGAaiUIIp58kqKZgYs9Tfs922CYoURCIAACJgQAaiUoIMZlyOnaOa5NUGCrGEEAiAAAiAgEgExVaq2tjYoKOiXX34pKytjWTY3N7e8vFykONVzQ8xKPXcse+FWAUUzL28JVXcg7EEABEAABLQhQKznQu+eyMzMHDJkiJ2dnbm5eVpaGsuybm5uc+fO1SY4jccSs1LXs++VxkfNvvLTRXUHwh4EQAAEQEAbAsR6LlSl3nrrrY8++qimpqZDhw6cSoWEhDz99NPaBKfxWGJW6no+EJlB0cxLP4aoOxD2IAACIAAC2hAg1nOhKtWlS5dbt26xLMurVEZGhq2trTbBaTyWmJW6ntedllE0M++3q+oOhD0IgAAIgIA2BIj1XKhKPfHEEwkJCYoqFRYW1r17d22C03gsMSt1PW8ISKRoZs7+aHUHwh4EQAAEQEAbAsR6LlSl3nvvvc8++4xTqfT09PLy8n/961+zZs3SJjiNxxKzUtez+7FYima2BCWpOxD2IAACIAAC2hAg1nOhKpWbmzto0CBHR0cLC4uxY8d26dJl8ODBBQWGeeodMSt1kc3//RpFM3vC0tUdCHsQAAEQAAFtCBDruVCVYlm2srJy79698+fPd3V19fb2rqys1CYybcYSs1LX+cc+URTN/Bl9W92BsAcBEAABENCGALGeC1Wp0NDQ2tpaxVBqa2tDQw3zAyNiVopxCmlP2xlB0czp2DwhxrABARAAARAQiwCxngtVKalU2uz63t27d6VSqViBquWHmJVa3liWfeWnixTNhCQVqjsQ9iAAAiAAAtoQINZzoSplZmZWWPhIEU9KSurYsaM2wWk8lpiVup4nbrxA0cyVjGJ1B8IeBEAABEBAGwLEek5WqalNi1Qqfe2117j21KlTXVxc+vbt+/LLL2sTnMZjiVmp63m0Z+PLpeJy5OoOhD0IgAAIgIA2BIj1nKxSs5oWMzOz999/n2vPmjXrv//977p164qKDPPOQGJW6iIb+i1eLqUuM9iDAAiAgAgEiPWcrFJcFKtWrbp/31jeEEjMSl1y/ZteJ3+ntErdgbAHARAAARDQhgCxngtVKW2CEH0sMSu1ZqypredegSivwCsQ1SIHYxAAARDQlgCxnquhUkeOHHn33XfHjBkzSmHRNkCNxhOzUstrSUUNp1K1dfVqDYQxCIAACICAlgSI9VyoSm3durVDhw7z58+3srKaO3fu5MmTO3XqtGzZMi3j02w4MSu13BaUVlE008+dUWsUjEEABEAABLQnQKznQlVq8ODBhw4dUnza7Lfffjt//nztQ9TAAzErtXzeLq6gaGbQ8tNqjYIxCIAACICA9gSI9VyoStna2mZmZrIs261bt5s3b7Ism5yc3LlzZ+1D1MADMSu1fKYWllM084xHoFqjYAwCIAACIKA9AWI9F6pS/fr1u3btGsuyo0eP/uWXX1iWPXPmzBNPPKF9iBp4IGalls+4HDlFM//nGaTWKBiDAAiAAAhoT4BYz4Wq1Jw5c1atWsWy7M6dO21tbSdPnvz4449/8skn2oeogQdiVmr5vJpZTNHMxI0X1BoFYxAAARAAAe0JEOu5UJWqr6/nnzb7xx9/LFiwYOvWrTU1NdqHqIEHYlZq+byYXEjRzMtbDPPkXLVChTEIgAAImBgBYj0XqlKtcsnJyWm1X9edxKzUCiAgLp+imXd2RKg1CsYgAAIgAALaEyDWcw1VKj8//4svvrCxsdE+RA08ELNSy6ff9WyKZj7ac1mtUTAGARAAARDQngCxnpNVqqSkZPr06V27du3Zs+fWrVvr6+u//fZbW1vb0aNHc/emax+luh6IWanl8LdLmRTNfHYgWq1RMAYBEAABENCeALGek1XK1dXVwcHhq6++GjZsmFQqffXVV1944YWQkBDtg9PYAzErtTzvDk2jaGaR7w21RsEYBEAABEBAewLEek5WqT59+gQFNd6lnZaWZmZm5ubmpn1YWnogZqWW/5+CkimacT8Wq9YoGIMACIAACGhPgFjPySplYWGRm5vLhWJraxsXF6d9WFp6IGallv81fyVQNOPJJKg1CsYgAAIgAALaEyDWc7JKSaVS/i29HTp0SE9PVyssLy+vvn37WltbOzk5Xbx4UcXY8PBwc3PzESNGqLDhdhGzInpQNFjse4OimZ+CkhU70QYBEAABENADAWI9J6uUmZkZ/5ZeCwuLKVOm8G/snTp1quocfH19LS0tvb29ZTKZm5ubvb19VlZWq0Pkcnn//v2nTJmif5V6Z0cERTNewSmtBoZOEAABEAAB3REQQaX49/O22lAdurOz87x583ibIUOGuLu785uKjffff3/FihUeHh76V6k5+6Mpmtl2DudSigcEbRAAARDQBwERVErjMGtqaszNzf38/HgPCxcunDBhAr/JN/bu3Tt69Oja2loVKlVdXV36cMnOzpZIJKWlpbwHbRrv/RJJ0cypm39/96aNK4wFARAAARBQi4AhVSo3N1cikURE/O+ZDmvXrh00aFCzBJKTk7t3756UlMSyrAqV8vDwkDy6iKVSr229SNHMhVsFzQLDJgiAAAiAgK4JGF6lIiMj+SQ9PT0HDx7Mb7IsW1dXN3r06J07d3KdKlRKd+dS3It6r2QUKwaGNgiAAAiAgB4IGFKlhFzxKykpkUgk5g8XMzMzbvP8+fMq6BCzUjG25a7/8wyiaOZa1r2Wu9ADAiAAAiCgUwLEek6+x0+b+JydnV1dXXkPjo6Oze6eqK+vj1NYXF1dBw8eHBcXd//+fX5UywYxq5ZDVPQ84xFI0UxaYbkKG+wCARAAARDQBQFiPdetSnF3ovv4+MhkskWLFtnb23Mv/HV3d58xY0bLhFVc8VM0JmalaExsD1jqT9FMbkkl0RIGIAACIAAC4hIg1nM1VOrXX38dN25cz549OaXZsmXLiRMniOF6eXlRFGVlZeXk5BQa+vc7nGbOnDlx4sSWY/WvUg/q6rnvpUoqDPOurJYQ0AMCIAAC7YeAaCq1Y8eOrl27enp62trapqWlsSy7b9++SZMmGQQlMSvhUZVVPeBUqupBnfBRsAQBEAABEBCFALGeCz2XcnR0PH78OMuyHTp04FQqLi6uS5cuokSprhNiVsIdFpVXcyrV0NAgfBQsQQAEQAAERCFArOdCVcrGxoa70MerVHJysgm8BTHz7n2KZoasCBAFN5yAAAiAAAioRUA0lXJ0dOS+heJVauvWrU5OTmpFI5YxMSvhE8nySimaeW7NWeFDYAkCIAACICAWAWI9F3outXfv3t69e/v6+trb2x8+fNjT05NriBWoWn6IWQn3djWzmKKZ8RsuCB8CSxAAARAAAbEIEOu5UJViWXb37t19+vQxa1ocHBz27NkjVpTq+iFmJdxhWHIRRTMvb/n75kPhA2EJAiAAAiCgPQFiPVdDpbhoioqKCgoM/Mg7YlbCwQUl3KFoxuXncOFDYAkCIAACICAWAWI9F6pSq1atSk1NFSssLf0QsxLu/9dLmRTNvLPjf4/EFT4WliAAAiAAAloSINZzoSo1fPhwqVQ6ZsyY7du386/u1TI4jYcTsxLu+Y/o2xTNjFuv6rGBwr3BEgRAAARAQC0CxHouVKVYlo2Pj1+6dGm/fv0sLS1fffXV33//vaKiQq1oxDImZiV8orX+Mopm5v9+TfgQWIIACIAACIhFgFjP1VApPqbw8PDPP/+8W7duHTt25Dv12SBmJTyYny+kUDTzthe+lxLODJYgAAIgIBoBYj3XRKVu3Ljx1Vdf9e7d2wR+1bvyRBxFMx4n40VDDkcgAAIgAAKCCYipUunp6Z6eno6Ojubm5i+88IK3t7dcLhcciZiGxKyETzb/92tQKeG4YAkCIAAC4hIg1nOh51Jjx46VSqUjRozYuHFjTk6OuFGq642YlXCHX/95EyolHBcsQQAEQEBcAsR6LlSlli5dGh9vLJfFiFkJh+h68CpFM/sjMoQPgSUIgAAIgIBYBIj1XKhKiRWQKH6IWQmfZfa+KxTN+F7JEj4EliAAAiAAAmIRINZzgkotXryYe7n7YiWLWIGq5YeYlXBvH+25TNHM0avZwofAEgRAAARAQCwCxHpOUKlJkyaVlJSwLDtJySJWoGr5IWYl3NsHuy5RNHPyZq7wIbAEARAAARAQiwCxnhNUSqw4xPVDzEr4dNN2RlA0czo2T/gQWIIACIAACIhFgFjPharU7Nmzy8rKFMO6f//+7NmzFXv01iZmJTyS/kv9KZo5m3BH+BBYggAIgAAIiEWAWM+FqpRUKm32KPSioiJzc3OxAlXLDzEr4d5e3hJK0Yw/zqWEI4MlCIAACIhHgFjPySpVWloql8vNzMxSU1NLHy737t07cOBAz549xQtVDU/ErIT7mrjxAkUzVzKKhQ+BJQiAAAiAgFgEiPWcrFJmZmbS1hZzc3NPT0+xAlXLDzEr4d7GrD1H0UxstmEeoiE8TliCAAiAgEkSINZzskqFhIQEBwebmZn5+fmFPFwiIyNzcw12XxwxK+HH8pmVgRTNpBWWCx8CSxAAARAAAbEIEOs5WaW4UDIzMxsaGsQKS0s/xKyE+x/QdPdEvrxK+BBYggAIgAAIiEWAWM8JKhUTE1NfX8+ybIySRaxA1fJDzEqgtwd19RTNUDRTUlEjcAjMQAAEQAAERCRArOcElTIzM+Nu7eO+nTJ7dJFKpSLGKtwVMSuBrkqrHnAqVfWgTuAQmIEACIAACIhIgFjPCSrFX+jLVLKIGKtwV8SsBLq6W17NqVR9vbFczBQYOcxAAARAwDQIEOs5QaWMkwIxK4Fh3ymtomim/1J/gfYwAwEQAAEQEJcAsZ4LVan9+/czDMMF980333Tq1Okf//hHZmamuOEK9EbMSqCf28UVFM0MXnFaoD3MQAAEQAAExCVArOdCVWrQoEHnz59nWTYyMtLW1nbXrl1vvvnm1KlTxQ1XoDdiVgL9pBaWUzTzzMpAgfYwAwEQAAEQEJcAsZ4LVSlbW9usrMaXMC1ZsmTGjBksy8bHx3ft2lXccAV6I2Yl0E9CbilFM8+tCRJoDzMQAAEQAAFxCRDruVCV6tat2/Xr11mWHTly5IEDB1iWTU1Ntbe3Fzdcgd6IWQn0c+N2CUUz49Y3niNiAQEQAAEQ0D8BYj0XqlLTp093cnKaM2eOnZ3d3bt3WZY9efLksGHD9J8Sy7LErARGFZVeTNHMC5uCBdrDDARAAARAQFwCxHouVKVKSkrmz5/v4uISEBDAhbhy5cq2/hy/07F5FM1MgkqJ+6GDNxAAARAQTEA0lRI8oz4MiVkJDOJswh2KZoas+Ft3BY6CGQiAAAiAgFgEiPVc6LkUy7IlJSU//PDDnDlzPv30082bN8vlBnuOODErgfiYmMZzqXd/iRRoDzMQAAEQAAFxCRDruVCVio6O7ty5c+/evadOnfr22287ODh06dLl2rVr4oYr0BsxK4F+jl3Lpmjmoz2XBdrDDARAAARAQFwCxHouVKWef/75WbNm1dbWcvHV1tbOnDlz/Pjx4oYr0BsxK4F+DkVlUTQzZ/8VgfYwAwEQAAEQEJcAsZ4LVSkbG5vExETF4BISEmxtbRV79NYmZiUwkgORGRTNuB68KtAeZiAAAiAAAuISINZzoSrVvXv3M2fOKAYXGBjYvXt3xR69tYlZCYxkT1g6RTMLDjX+DgwLCIAACICA/gkQ67lQlVqwYIGDg4Ovr+/t27ezs7MPHz7s4ODg5uam/5RE/L3UzpBUima+/OOmQbLApCAAAiAAAqKpVE1NzcKFC62srKRNi7W19aJFi6qrqw2CmJiVwKhWnYqnaIY+GiPQHmYgAAIgAALiEiDWc6HnUlxYFRUVsbGxMTExFRUV4gaqljdiVgK9fXcqAd9LCWQFMxAAARDQBQFiPSerVEVFxeeff96rV69u3br95z//KSoq0kWgavkkZiXQ2/cBiRTNLPK9IdAeZiAAAiAAAuISINZzskp9/fXXdnZ2n3322YIFC7p27Tpt2jRxQ9TAGzErgT49mcZzqXX+MoH2MAMBEAABEBCXALGek1Wqf//+hw8f5sKKioqysLCoq6sTN0p1vRGzEujQ42Tj91IbAx+5w17gWJiBAAiAAAhoT4BYz8kqZWlpmZOTw4diY2Nz+/ZtftMgDWJWAqNafjyWopkfzyYJtIcZCIAACICAuASI9ZysUlKptLCwkA+rQ4cO6enp/KZBGsSsBEa15EgMRTPbzycLtIcZCIAACICAuASI9ZysUmZmZq+99trUh4uFhcWUKVMebrXtN8ov9r1B0cyu0FRxocMbCIAACICAQAIiqNQslYvAOMQ1I2YlcLoFh65TNLMnzMCnhgKjhRkIgAAImB4BYj0nn0sZIRRiVgJj/vz3axTN7AuHSgkEBjMQAAEQEJkAsZ63a5Wa++tVimZ+vZQpMnW4AwEQAAEQEEYAKqWK06cHoima+f1ylioj7AMBEAABENAZAaiUKrSz912haOaPKwa+sV5ViNgHAiAAAiZNACql6vC+uDmEopmjV7NVGWEfCIAACICAzghApVShffWni/heShUg7AMBEAABHRMQU6V+/fXXcePG9ezZMzOz8XaDLVu2nDhxghi/l5dX3759ra2tnZycLl682NL+2LFjkydP7tq1a8eOHceOHRsYGNjSplkPMatm9so23/0lkqKZ49f/92QNZZboBwEQAAEQ0AUBYj0Xeo/fjh07unbt6unpaWtrm5aWxrLsvn37Jk2apDpoX19fS0tLb29vmUzm5uZmb2+fldX8VgU3N7cNGzZcuXIlOTl56dKllpaW168TXp5LzEp1VPzet73CKZo5E5/P96ABAiAAAiCgTwLEei5UpRwdHY8fP86ybIcOHTiViouL69Kli+pknJ2d582bx9sMGTLE3d2d32y1MXTo0O+++67VXXwnMSveUnXj9W2NV/wu3CpQbYa9IAACIAACOiJArOdCVcrGxoa70MerVHJyso2NjYq4a2pqzM3N/fz8eJuFCxdOmDCB32zZqK+vf+qpp7Zv395yV3V1denDJTs7WyKRlJaWtjRTq+fpZf4UzYSnGP6NWWqFDWMQAAEQMBkCoqmUo6Mj9y0Ur1Jbt251cnJSQSo3N1cikURERPA2a9euHTRoEL/ZsrFx48bOnTsXFLRycuPh4SF5dNFepf7PM4iimWCcS7U8EugBARAAAb0QEE2l9u7d27t3b19fX3t7+8OHD3t6enINFVlwKhUZGcnbeHp6Dh48mN9s1jh06JCdnV1QUFCzfm5TF+dSz284T9HMtax7rc6IThAAARAAAV0TEE2lWJbdvXt3nz59zJoWBweHPXv2qI5erSt+vr6+tra2DMOo9sntJWYlxAnLsmPXnaNoJjZbLtAeZiAAAiAAAuISINZzod9L8WEVFRW1ekWON1BsODs7u7q68j2Ojo6t3j1x6NAhGxsb7u4M3lhFg5iVirGKu0Y3XfGT5Wn7/ZaiT7RBAARAAASEEyDWc7VVSvjcLMtyd6L7+PjIZLJFixbZ29tzt2C4u7vPmDGDc3Xo0CELCwsvL6/8h4tcTji5IWYlMMiR352haCb5TplAe5iBAAiAAAiIS4BYz4WqVN++ffu1thDD9fLyoijKysrKyckpNDSUs585c+bEiRO59sSJEx+9K0Iyc+ZM1W6JWakezu+laIaimfSi+3wPGiAAAiAAAvokQKznQlXqJ95EvIQAACAASURBVIVl06ZN06dP79y58/r16/WZDD8XMSveUnWDU6msuxWqzbAXBEAABEBARwSI9VyoSrWM7+eff541a1bLfj30ELMSGEM/98ZzqYKyKoH2MAMBEAABEBCXALGea65SaWlpHTt2FDdcgd6IWQnxU1ffwJ1LlVTUCLGHDQiAAAiAgOgEiPVcc5XasGEDRVGiRyzEITErIU6qHtRxKlVeXSvEHjYgAAIgAAKiEyDWc6EqNXLkyFEPl5EjRz755JPm5ua7du0SPWIhDolZCXFSVvWAU6nq2joh9rABARAAARAQnQCxngtVqVUKy+rVq3fu3JmYmCh6uAIdErMS4qeovJpTqfr6BiH2sAEBEAABEBCdALGeC1Kp2tra/fv35+cbyxsuiFkJ4XintIqimX7ugp52IcQhbEAABEAABNQlQKznglSKZVlbW1vuB7nqRqALe2JWQibNLamkaGbgstNCjGEDAiAAAiCgCwLEei5UpSZNmiT8CUa6yETRJzErRWNl7dvFFRTNDF4BlVJGCP0gAAIgoHMCxHouVKX+/PPP/v37b9++PTIyMkZh0XkGrU1AzKq1Qc37MoruUzQzbCX5BfbNR2IbBEAABEBAJALEek5WqdmzZ5eWlnKPQuf/K5VKzczMpFKpSHGq54aYlRB3qYXlFM0M94BKCaEFGxAAARDQCQFiPSerlFQqLSgoyFSy6CRqklNiViQHjfuT7pRRNDNq9VkhxrABARAAARDQBQFiPSerlJmZmfBXdegih5Y+iVm1HNKyJyG3lKKZ59a0/tLFlvboAQEQAAEQEJ0AsZ4LUqnCwkLRI9PGITErIc6vZd3jfi8lxBg2IAACIAACuiBArOeCVOrxxx9/Qsmii6CJPolZET2wLHu9SaWGrAgQYgwbEAABEAABXRAg1nNBKrV169b9ShZdBE30ScyK6IFl2eiMYopmJm0KFmIMGxAAARAAAV0QINZzQSplkt9LXUq7S9HMi5tDdMEdPkEABEAABIQQEEGluHv8hEymNxtiVkIiCUsuomjm5S1/vz5YyBDYgAAIgAAIiEuAWM/b77lU8K0CimZe23pRXOLwBgIgAAIgIJyACColfDK9WRKzEhLJsWvZFM24bA8TYgwbEAABEAABXRAg1nPyuZQuwtLSJzErIf4D4vIomhm0HM/xE0ILNiAAAiCgEwLEet5+VerUzVyKZt7fFakT8HAKAiAAAiAggABUSikkv+uNV/w+9L6s1AI7QAAEQAAEdEwAKqUU8J/Rtymambk3SqkFdoAACIAACOiYAFRKKeCDlzMpmpmzP1qpBXaAAAiAAAjomABUSingTYG3KJqZve+KUgvsAAEQAAEQ0DEBqJRSwD5h6RTNvPoTfi+lFBF2gAAIgICuCUCllBLeHZpG0cwi3xtKLbADBEAABEBAxwSgUkoB7whOpWjmqz9vKrXADhAAARAAAR0TgEopBfzzhRSKZuijMUotsAMEQAAEQEDHBKBSSgH/FJRM0cwyv1ilFtgBAiAAAiCgYwJQKaWAV/+VQNHMyhNxSi2wAwRAAARAQMcEoFJKAS/+4wau+Cmlgx0gAAIgoBcCUCmlmD2ZxnOpBYeuK7XADhAAARAAAR0TgEopBbzqVDxFMxsCEpVaYAcIgAAIgICOCUCllAJeeSKOopnNZ24ptcAOEAABEAABHROASikFvMwvlqKZLUFJSi2wAwRAAARAQMcEoFJKAbsfi6FoZvv5ZKUW2AECIAACIKBjAlAppYC//vMmRTNewSlKLbADBEAABEBAxwSgUkoBv7b1IkUzu0JTlVpgBwiAAAiAgI4JQKWUAp7/+zWKZlb/laDUAjtAAARAAAR0TAAqpRSw68GrFM0ciMxQaoEdIAACIAACOiYAlVIK+LMD0RTNHLycqdQCO0AABEAABHRMACqlFPAn+65QNON7JUupBXaAAAiAAAjomABUSingj32iKJo5cjVbqQV2gAAIgAAI6JgAVEop4OnelyiaOXEjR6kFdoBAOyBQV1dXhQUE9EKgrq6u5Z8UVKolk797hq0MpGjm5M1cpRbYAQKmTqC8vDwxMVGGBQT0QiAxMbG8vLzZXxVUqhmQ/23+e0cERTOHo/C91P+YoNWuCNTV1SUmJmZlZVVWVurlX9KYpF0TqKyszMrKSkxMbHZGBZVSWnbe+jmcopmzCXeUWmAHCJg0gaqqKplMVllZadJZIjkjIlBZWSmTyaqqqhRjgkop0nik/ca2MIpmLiQWPNKLDRBoNwQ4lWpWMtpN9kjUAARa/chBpZQeiVd/anxCUmhSoVIL7AABkybQaskw6YyRnIEJtPqRg0opPSpTfgylaCYipUipBXaAgEkTaLVkmHTGSM7ABFr9yEGllB6Vf/0QTNHM5bS7Si2wAwRMmkCrJcOkM0ZyBibQ6kcOKqX0qFA0Q9FMdEaxUgvsAAGTJtBqyTDCjCUSyfHjx8UKLDg4WCKRlJSUcA6PHz8+YMAAqVTq5ua2b9++Tp06aT/RrVu3evToUVZWpr2rtujhr7/+GjlyZH19fcvgW/3IQaVagvq757k1QTiXUkoHO9oBgVZLhqHyzs/P/+KLL/r162dlZeXg4PDGG2+cO3eOC0ZclaqpqcnPz29oaOCcd+/enabp3NzcsrKyysrKggIRbqf697//vXr16mYkBw0aZGlpmZPzyGMEKIrasmWLouWWLVsoiuJ7SktLly1bNnjwYGtr6x49erz44ovHjh3jg+fNNGjExsZOmDDBxsamV69e3333nTKfSUlJLi4uXbp06dix47hx4y5cuMDPtXDhQicnJysrqxEjRvCdXGPUqFG//fZbs06WZVv9yEGlWoL6u4dTKVleqVIL7AABkyagWDIaGhoqamp1tCqrgDzdjIyMXr16DR069MiRI0lJSfHx8Zs3bx48eDBnIK5K8ZOyLFteXi6RSBQrr+JeIe0HDx40M8vOzra0tMzOfuTRa2FhYX369Jk+fbqnp6eivWqVKikpGTZsmIODw/79+xMSEpKSknbv3j1gwAD+RFDRlVrt0tLSHj16fPDBB3FxcceOHevYseMPP/zQqoenn376tddei4mJSU5O/vzzz+3s7PLz8znLBQsW/PzzzzNmzGipUtu2bXN2dm7pUPEjx++FSvEomjeeXXWGopmUguY/hG5uh20QMFECiiWjoqaWuwaui/9W1NSqRvjqq6/27t37/v37imZ8LVZUqSVLlgwcONDW1rZfv34rVqzgReLmzZuTJk3q0KFDx44dnZycoqOjWZbNzMx84403Hn/8cTs7u6FDh/r7+7Msy1/x4xqSh0twcHCzK36nTp1ycnKytrbu16/fqlWramv/zkIikezcudPFxcXOzm7lypWKMbMsu3nz5tGjRzfrnDVrlru7e0BAQP/+/RU1W7VKubq62tvb5+Y+8nyc8vJyPpJmswjf3LFjR6dOnaqrq7kh69ev79Wrl2JgXH9RUZFEIrl48SK3WVZWJpFI+HNcrtPDw6OlSmVmZkokkrS0NM6G/6/iR47vNLxKeXl59e3b19ra2snJic+Wj49rhISE8J+GnTt3NtvbcpOYVcshLXuGfhtA0UzW3YqWu9ADAu2BgGLJMKBKFRcXm5mZrVu3ThlzRZVas2ZNRERERkbGqVOnevTosWHDBm7UsGHDPvroo8TExOTk5D///PPmzZssy77++usvvfRSbGxsWlraX3/9FRoaqqhSNTU1SUlJEonk2LFj+fn5NTU1iioVGBj42GOP7d+/Py0t7ezZs3379l21ahU3l0Qi6d69u4+PT1paWmZm81f/vPXWW/PmzVPMpayszN7ePj4+vq6urkePHoqnbipUqr6+/oknnvjvf/+r6EpZ++LFi/ZKlrVr17YcNWPGDBcXF77/+vXrEokkPT2d7+EaDQ0Njo6On3766f3792trazdt2tSjRw/+Xw+cTasqxbJs9+7d9+/f38yh4keO30Ws5xLeVBcNX19fS0tLb29vmUzm5uZmb2+fldX8iUTp6el2dnZubm4ymczb29vS0vLo0aOqgyFmpXo4t/fpZf4UzeTJ8cN7IbRgY4IEFEuGAa/4RUVFSSQSPz8/ZYgVVUrRZuPGjc899xzX07Fjx5Y1cfjw4by08AP5cymWZUtKSiQSSXBwMLdXUaXGjx+vKJy//fZbz549OTOJRLJo0SLeYbPGiBEjmn0ptXv37pEjR3Jmbm5uH374IT9EhUoVFBRIJJIff/yRN1bRqKysTFGyFBe3coPYSy+99Nlnn/EOc3NzJRJJZGQk38M3cnJynnvuOTMzM3Nz8169et24cYPfxTWUqdSoUaNawlf8yPF+iPVctyrl7Oys+M+KIUOGuLu788FxjSVLlgwZMoTvnDt37tixY/nNVhvErFodpdhZXVvHXdmQVza/rKxohjYImDCBVkuG/vO9fPmyMh3iglHce+TIkX/+8589evSwt7e3trbu1q0bZ+Ph4WFhYfHiiy+uX78+NTWV6/T29rawsBg3btzKlStjYmK4ToEqZWdnZ2Njw5+f2NjYSCSSiorGSy8SieTgwYOct5b/HTRo0MaNGxX7x4wZw3/rEx0dbWtry5+OqFCpO3fuSCSSZvdWKLrVpv3SSy8pnqXl5ORIJJJLly4189nQ0ODi4vLqq6+Gh4dfu3bN1dW1d+/eeXl5imbKVGrcuHFLlixRtDTGuydqamrMzc0V/4m0cOHCCRMmNIt7/PjxCxcu5Dv9/PwsLCz4y818f3V1denDJTs7WyKRlJZqfuND8f0aTqVq61q5XZKfFA0QMGECRqJSwq/4Xbp0ydzc3NPTMzo6Ojk5efXq1Yo3jiclJf34448vvfSSlZUVX3Zu3769c+fOqVOnWlpabtu2TfGKn+pzKRsbmw0bNjQ7P+HurlZUzZYfj3Hjxi1dupTvT0hIkEgkUqnU/OEikUh27NjBGbQ82/Pw8Hj22WdZljWGK37nzp2TSqWKlfbpp59ev349nx3LsspUasiQIZs2bVK0NEaV4s4iIyIi+EDXrl07aNAgfpNrDBw4UPHKaUREhEQiaSbXHIuHX3P+/X9Fds18EjdzSyqfWRno+G0A0RIGIGCqBIxEpViWfeWVV4TcPfHDDz/079+fPxxz5sxRVCm+/4MPPnjzzTf5Ta7h7u4+fPhw4So1bty4Tz75pJkTblO1Ss2fP/+tt97iB3755ZcTJkyIU1iWLFnCX6h89913X3/9dd6YZdnXXnvt3Xff5XrmzZvX8u4J7isixSEsy6p7xW/Hjh2PP/54TU0N5+f7779v9e6JU6dOSaVSxXdtDBo0SLFcK1OpqqoqS0vLZvdZGK9KKV7r9PT05O8u5SkPHDhQ8fpveHi4RCLhb3bkzcQ9l+LctrynhZ8ODRAweQLGo1Lp6elPPvnk0KFDjx49mpycLJPJtm7dyn8RwKvCiRMnLCwsDh8+nJqaunXr1s6dO3MqVVlZOX/+/ODg4MzMzPDw8AEDBnDXmtzc3AIDA9PT069du+bs7Pzee+8JV6nAwEALCwsPD4/4+HiZTObr67t8+XLuI8HH0+on5NSpU927d+deTvHgwYNu3bo1uyMsOTlZIpFw93dcunRJKpV+9913CU3L6tWrpVLp5cuXOc/37t0bMmSIg4PDgQMHEhISkpOTfXx8nn76af6CYasBCOmUy+U9evT4z3/+ExcX5+fn99hjj/HXJKOiogYPHsz9rquoqKhLly7vvPPOzZs3k5KSvv76a0tLSy5ylmVTUlJu3Lgxd+7cQYMG3WhaeNkLDg7u0KEDd4FUMZ5WP3LEb3B0+L2UuFf8FFMlZqVojDYIgECrBFotGa1a6qEzLy9v/vz5FEVZWVn17t3bxcWFv6lBURW++eabLl26dOjQ4f3339+yZQunUjU1NR988MFTTz1lZWXVq1evL774gnvQ+xdffDFgwADu66sZM2bcvdv4ODSB30uxLBsYGDhu3DhbW9vHHnvM2dl59+7dHAfFeFqSqaur6927d2BgIMuyR48elUqld+40fz3Q8OHDFyxYwI0NCgoaP378E03L888/HxQUpOhTLpe7u7sPHDjQysqqR48ekydPPn78uCj/vI6NjR0/fry1tfWTTz65atUq3ifHJyMjgwsjOjp6ypQpnTt37tix49ixY0+fPs2HN3HixGbXt/hR//3vf+fOnctb8o1WP3LEeq5DlWJZ1tnZ2dXVlQ/R0dGx1bsnHB0deZt58+bp4e4Jfjo0QKDdEmi1ZLRbGiIm7uXlNWXKFBEdti1XhYWFnTt3bnlfuzFe8WNZlrsT3cfHRyaTLVq0yN7envt5gbu7+4wZMzj03J3oixcvlslkPj4+ersTvW0deEQLAqITgEqJjpRzWFtb6+np2W6f4xcVFeXr69sq21Y/cgY+l2JZ1svLizuLd3Jy4n5Vx7LszJkzJ06cyKcREhIyatQoKyurvn37NruGy9soNohZKRqjDQIg0CqBVktGq5boBAFRCLT6kSPWc91e8RMlsZZOiFm1HIIeEACBZgRaLRnNbLAJAiISaPUjR6znUCkRDwFcgUBbIsCVjMpKPH6lLR21Nh1rZWWlTCbj7m3hE4FK8SjQAAEQeITAgwcPZDKZXC5/pBcbIKAzAnK5XCaTNXtoA1RKZ7zhGATaOIGGhobMzMyUlJSKiooqLCCgYwIVFRUpKSmZmZn8Xe/cHxBUqo0XEoQPArokUFNTc+vWLRkWENALgVu3bvG//OU/11ApHgUaIAACrRCor6/X8b+h4R4E/ibQ6mvmoVKt/FmiCwRAAARAwEgIQKWM5EAgDBAAARAAgVYIQKVagYIuEAABEAABIyEAlTKSA4EwQAAEQAAEWiFgmioll8slEkl2dvbD1yLi/yAAAiAAAm2SAPdWWxW/22uTz57gsmr20HhsggAIgAAItFEC2dnZrZxnNXW1SZWqr6/Pzs6Wy+Xa/MuBkzqckHEMQUPxswQaoKFIoFkbHw9FINrTkMvl2dnZrd6kzulWm1QpZZKrVj/xYqha3tq6MWgoHkHQAA1FAs3a+HgoAtEDDahUqSLxdtvWw0etDbEFDcWDBRqKNFiWBRBFIHqgAZWCSjV+5PTwUVP8ZBt5GzQUDxBoKNLAH4v+abRflaqurvbw8Kiurm4GvX1ugobicQcN0FAk0KyNj4ciED3QaL8qpQgabRAAARAAAeMkAJUyzuOCqEAABEAABBoJQKXwOQABEAABEDBeAlAp4z02iAwEQAAEQAAqhc8ACIAACICA8RJoFyrl5eXVt29fa2trJyenixcvtno0QkJCnJycrK2t+/Xrt3PnzlZtTKOTSOPYsWOTJ0/u2rVrx44dx44dGxgYaBqJt5oFkQY/Kjw83NzcfMSIEXyP6TWE0Kiurl62bFmfPn2srKz69+/v4+Njehy4jITQOHjw4LPPPmtra/vkk0/OmjXr7t27JkkjNDT0jTfe6Nmzp0QiOX78uLIcdVRFTV+lfH19LS0tvb29ZTKZm5ubvb19VlZWM8rp6el2dnZubm4ymczb29vS0vLo0aPNbExjUwgNNze3DRs2XLlyJTk5eenSpZaWltevXzeN9JtlIYQGN0Qul/fv33/KlCkmrFICabi4uIwZMyYoKCgjIyMqKioiIqIZVdPYFEIjLCxMKpVu3bo1PT09LCxs2LBhb7/9tmmk3yyL06dPL1++/NixYypUSndV1PRVytnZed68eTz0IUOGuLu785tcY8mSJUOGDOE7586dO3bsWH7TlBpCaDTLd+jQod99912zTtPYFE7j/fffX7FihYeHhwmrlBAaAQEBnTp1Ki4uNo0PgIoshNDYtGlT//79eSfbtm1zcHDgN02yoUKldFdFTVylampqzM3N/fz8+E/MwoULJ0yYwG9yjfHjxy9cuJDv9PPzs7CwePDgAd9jGg2BNBSTra+vf+qpp7Zv367YaRpt4TT27t07evTo2tpaE1YpgTRcXV1ffPFFmqZ79eo1cODAr776qrKy0jQ+D4pZCKQRERFhZWXl7+/f0NBw586dCRMmzJ07V9GP6bVVqJTuqqiJq1Rubq5EIlG8KLF27dpBgwY1+/QMHDhw7dq1fGdERIREIsnLy+N7TKMhkIZishs3buzcuXNBQYFip2m0BdJITk7u3r17UlISy7ImrFICabz88svW1tavv/56VFSUv78/RVGzZ882jc+DYhYCabAse+TIkQ4dOlhYWEgkEhcXF9P7p60ilsafLin/Xkp3VbRdqFRkZCTP2tPTc/Dgwfwm1xg4cOC6dev4zvDwcIlEkp+fz/eYRoP72yPS4JM9dOiQnZ1dUFAQ32NKDSE06urqRo8ezd9NY/IqRfxsvPTSSzY2NvwL644dO2ZmZmZ6p1NCPhssyyYkJPTs2XPjxo0xMTGBgYHDhw//5JNPTOlvpGUuqlVKR1XUxFVK4Jm77s5VWx5mA/YIpMFF6Ovra2tryzCMAQPW6dRCaJSUlEgkEvOHi5mZGbd5/vx5ncamf+dCaLAs+/HHHw8YMIAPTyaTSSSS5ORkvsc0GgJpfPTRR9OmTeNTDgsLM8lrMHyCqs+ldFdFTVylWJZ1dnZ2dXXlQTs6OrZ694SjoyNvM2/ePBO+e4JIg2XZQ4cO2djYqLjllGfVphvEz0Z9fX2cwuLq6jp48OC4uLj79++36cRbDZ5Ig2XZXbt22dralpeXcx5OnDghlUpN71xKYN1455133nvvPR5mZGSkRCLJzc3le0yvoeJcasmSJTqqoqavUtwdpT4+PjKZbNGiRfb29pmZmSzLuru7z5gxg/sYcfdQLl68WCaT+fj4mPyd6KppHDp0yMLCwsvLK//hwl/hMbG/OiGfDcWUTfiKH8uyQmiUl5c7ODhMmzYtISEhNDR04MCBn376qSIik2kLobFv3z4LC4sdO3akpaWFh4ePHj3a2dnZZAgoJlJeXn6jaZFIJD/++OONGze43/Pop4qavkqxLOvl5UVRlJWVlZOTU2hoKEd/5syZEydO5I9ESEjIqFGjrKys+vbty38Pwe81pQaRxsSJEyWPLjNnzjQlAoq5EGkoGpu2Sgn8S0lMTJw8ebKtra3D/7d3pjFNLVEcH6ALhbaIEAWsKaIV4y6gohHFB8QF3D5oCCo1rqhUjRETIxGjMRoNS0hARUkVNSqyBI1EjYKiRIUoigq0BRQlVtHgQsAUkXl5b56TkS4P8T3qLacfYDpzZ+ac37md/71zpx2ZbOvWrTZ5I0WC3p1zIzU1deTIkSKRyNPTc+nSpY2NjewJYzPp4uLiH4cERMaE3hlF+4RK2cy5Ao4AASAABPoaAVCpvhZx8BcIAAEgwCUCoFJcihbYCgSAABDoawRApfpaxMFfIAAEgACXCIBKcSlaYCsQAAJAoK8RAJXqaxEHf4EAEAACXCIAKsWlaIGtQAAIAIG+RgBUqq9FHPwFAkAACHCJAKgUl6IFtgIBIAAE+hoBUKm+FvH/3V+1Wu3i4vK/d9PtDuRyeXJyssnDOf1bEjdu3PD19f327ZtJ13qW2Tusuondwk/GmfNOqVQuWLDAXGl38gMCAnJzc7tzJBzTawRApXoNNYc7UiqVXX4fRafTmfPnv1IptVpNO/Xw8Fi8eHF9fb25Ti3kNzU1tba2kgO6DHwtLS3v37+3ULf7Ray1AwYMiIiIePr06b9W/xVW/v7+WVlZpAu299+fldVV6tatWxEREZ6enl3OB4xxQUGBQqH4b7X/X08DOMAyAVApy3yg9C8CSqVy9uzZ33979q//HR0d5tD8ysjLtqlWq6VSqV6vf/36dVFRkUKhGD16tIV+2brm0sajkrkjfzaftba8vHzmzJlyudxgMFhup8esSktLpVLply9fSPts778/K6urVGFh4c6dO3Nzc43Ph46OjgEDBhQWFloOHJT2JgFQqd6kzdW+TE6kJCYmjh492snJSSaTrV+/nu7mwI68jx49Cg4OFovFEonEz8+vvLycICgtLQ0KCnJ0dJTJZCqVyuRGGGw7GOPTp08jhGpqajDG6enpPj4+fD5/+PDh9H6C7KU7ePBggUDg6empUqlIX3QWSy6X05szuVzO7r175coVoVD44cMHGiGVSjV9+vQeW3vx4kWEUGVlJWnBJKsuv+CZkJCAMTYYDHFxcV5eXk5OTpMmTSouLqYmsQmVSsXubMQtVqxKlZWVhYaGurm5SaXS6dOnP3jwgLqJEEpPT589e7ajo6O3t3d2djYtamxsXLJkSb9+/fr37z9//vznz5+TIpMnKq1lnDBWKYzxihUr6G4JxlUgp/cJgEr1PnPu9Wjyw5+cnFxUVFRfX08ekNBtq9gRc9SoUcuWLauurtZqtdnZ2Y8ePcIYV1ZWisXi5ORkrVZbWlo6YcKEFStWGENh28EYkyvfJ0+e5OXl8fn8tLQ0jUaTmJjo4OBQVFRE9vaWSqWFhYUNDQ3379/PyMggbVKVampqQgip1Wq9Xt/U1MSqVEdHx8CBA48fP06qkLdHjx7tmbUfPnyIjIxECFVXV5MGTbIyGAwpKSnkflGv1xOZj4qKmjp1aklJSW1t7aFDh4RCock9BseNG3fgwAEKjVusWJW6cePGqVOnqv5+rVq1auDAgZ8/fyZ+IYTc3NyOHTum0Wji4+MdHByqqqowxq2trQqFYuXKlZWVlVVVVVFRUb6+vuS2lT1RySwoRWQyYVKl0tPTvb29TR4PmVYhACplFewc61SpVDo4ODh/f7FX8cST7OxsNzc3kmZHTIlEcuLEiS7eLl++fO3atTTz9u3b9vb2dPKK5rPtvHr1KjAwUCaTGQyGqVOnrlmzhh62ePHiuXPnYowTExOHDx/e3t5Oi0iCqpTxTqPscLlp06Y//viDVLl69apAIGhubsYYd99ahJCzs7OTkxO5Y5s/f34XS8hbc6wwxrW1tXZ2duw2eiEhITt27DBux8XFhb2J5BYrFjvrdQyypwAABiVJREFUWkdHh0QiuXTpEslECMXExNADJk+eTK6EMjMzfX19Ozs7SZHBYBCJRFevXiVT03T1RF5enq+vL61uMmFSpQoKCuzt7eHRlEliVskElbIKdo51qlQqQ0NDdd9fr1+/xhgXFRWFhoZ6eXmJxWJHR0eEEJm4Y0fMhIQEHo8XEhKyf//+2tpa4vbIkSMFAsF3yftnWCeXySwXci1Mx30/P7+ysjKMsaurK6t8KSkpQ4YMwRi/fPly8ODBMpls9erVeXl5X79+Ja11U6Xu379vb29PFCI6OnrhwoU/a61EItHpdNXV1UeOHBk6dCihRBrpDiuMcXZ2NpE6CofH47G7wVI+AoGAnQHjFitWpd6+fbtu3TqFQiGVSp2dne3s7NLS0oibCKGTJ09Sl7ds2RIcHIwx3rBhA3vNRGqlp6d3USla0ULCpEpdu3YNIWTD+2ZZAPJ7FoFK/Z5x+b2sYidSiGUvXrxwdHTcsmXL3bt3NRpNZmYmQog812FVCmOs0WiSkpLCwsIEAkFeXh7GeMSIESqV6rvk/fPfeKGBWq0m435dXR374MrV1ZUdvJKTk318fIhVbW1tBQUFKpXKw8NjypQp5L6qmyqFMVYoFImJiW1tbRKJJCcnh7TZfWvZ9fe7d+8OCgr6WVbnzp1zcHCoqalh4ej1etIO+9fLy4tMSJJMbrFiVWrOnDkBAQGXL19++vSpTqdzd3enXxswVqmZM2dijGNiYiZNmsQi0ul0ZDtp4xOVhWacNqlS586dc3JyMj4YcqxFAFTKWuS51K/xhz8nJ4fH49FZkb1795pTKepnZGTkvHnzMMZRUVF0bo2WGie6qB09wHjGLzw8nJaSRE1NDUKIPIpnVYrP51P5YZ9LkVoJCQl+fn7nz593cXGhM5A9s/bTp09SqZSosgVWZ86cEYvF1HiNRoMQKikpoTnmEuHh4Zs3b6al3GLFqpRYLKZTly9fvkQIsSpFH3ZijAMDA8nbjIwMV1fXT58+UfdpwvhEpUUmEyZVKj4+ftq0aSaPh0yrEACVsgp2jnVq/OGvqKhACKWkpNTV1WVlZQ0aNMhYpdra2jZu3FhcXPzixYs7d+4MHTp0+/btGOPHjx+LRKINGzZUVFRotdqCgoLY2FhjIuZG3vz8fD6ff/jwYa1WS1ZPkIVwarX6+PHjT548qaur27lzp0gkIt+FYlVKoVCsX79er9eTZ07scIkx1mq1CKGxY8euWrWK2tNja7du3TpmzJjOzk4LrEpLSxFC169ff/fuHflS19KlS729vXNzc+vr68vKyg4cOHD58mVqDE2kpqb6+/vTt9xixWIfP358WFhYVVXVvXv3goKCRCIRq1Lu7u6ZmZkajWbXrl329vbPnj2jqyeCg4NLSkrq6+tv3ry5adOmV69edZnxs/BcqqWlpeLvF0IoKSmpoqKioaGBwpwxY8aePXvoW0hYnQColNVDwAEDjFUKY5yUlOTp6SkSiWbNmpWVlWWsUgaDITIykiwN9/Lyio2NpTcoZWVlYWFhYrHY2dl57Nix+/btM6ZgbuQ1txI9Pz9/8uTJ5PFGYGDg9evXSZusSl28eHHYsGE8Hq/LSnTa+8SJExFCZNEgzeyZtQ0NDTwe7/z58xZYkfkrNzc3hBBZid7e3r5r1y5vb28+n+/h4bFo0SK6nJ3agzFubm4WiURkXT7GmFusWJV6+PBhQECAUChUKBQXLlxgg4UQSktLCwsLEwqFcrn87NmzlIBer4+OjnZ3dxcKhT4+PmvWrCG3VuyJamGNX5fvACCElEolabyxsZHP5xPNo91BwroEQKWsyx96BwI9JBAXF8culexhK1DtRwLbtm1jV5D+WAjvrEMAVMo63KFXIPCLBD5+/Lhv375f/DGOX7TB9qofPHjwzZs3tucXpz0CleJ0+MB4IAAEgICNEwCVsvEAg3tAAAgAAU4TAJXidPjAeCAABICAjRMAlbLxAIN7QAAIAAFOEwCV4nT4wHggAASAgI0TAJWy8QCDe0AACAABThMAleJ0+MB4IAAEgICNEwCVsvEAg3tAAAgAAU4TAJXidPjAeCAABICAjRMAlbLxAIN7QAAIAAFOE/gT7ljazN6224wAAAAASUVORK5CYII=;" vertex="1" parent="1">
                    <mxGeometry x="1087.9" y="68.21000000000001" width="81.79" height="62.32" as="geometry"/>
                </mxCell>
                <mxCell id="21" value="" style="shape=image;verticalLabelPosition=bottom;labelBackgroundColor=default;verticalAlign=top;aspect=fixed;imageAspect=0;image=data:image/png,iVBORw0KGgoAAAANSUhEUgAAAjcAAAGwCAIAAADaF9MEAAAAAXNSR0IArs4c6QAAIABJREFUeAHsnQlYFFfWhot9cx/jbhoxIi6ZKDpoTAKTScxqTCbJH81EQzYnkkXMMjYuE+KCiSbRqCFGCWqiY3AUNdoqrmxCxAUXpBGQzQZxQQFZm6Xrf6D0Ttld9G2ku6q6+eqZZ3Lr1Kl7znlvcz9vdXUVw2IDARAAARAAAbkSYOSaGPICARAAARAAARYqhQ8BCIAACICAfAlApeQ7NsgMBEAABEAAKoXPAAiAAAiAgHwJQKXkOzbIDARAAARAACqFzwAIgAAIgIB8CUCl5Ds2yAwEQAAEQMAqVaqxsVGj0ZSVlZVjAwEQAAEQsGYCZWVlGo2msbGxJT22SpXSaDQMNhAAARAAAVshoNFobEqlysrKGIbRaDTW/A8I5A4CIAACIFDOrTrKyspsSqXKy8sZhikvL2+pKthBAARAAASsggB1PrfKK37UqqxibJAkCIAACIAAdT6HSuFDAgIgAAIgIBkBqJRk6BEYBEAABECASgAqRUUEBxAAARAAAckIQKUkQ4/AIAACIAACVAJQKSoiOIAACIAACEhGAColGXoEBgEQAAEQoBKASlERwQEEQAAEQEAyAlApydAjMAiAAAiAAJUAVIqKCA4gAAIgAAKSEZBYpeLj4ydMmNC7d2+GYXbs2NEShri4OF9fXxcXlwEDBqxevbolN2KnVkU80QABEAABEJAzAep8btlnT+zdu3fu3LnR0dFGVCo3N9fd3T04OFitVkdERDg5OW3bts04U2pVxk/HURAAARAAAZkQoM7nllUpQsGISs2aNcvHx4d4vv/++2PHjiW7gg1qVYJn8Y0NjTrNzar6hhbfaMJ3RhsEQAAEQMBCBKjzufQq9dhjj82YMYPUv337dkdHx7q6OmLhGrW1teQZ99yT3tvyTPSr5TUKper5lQk6nU4vEHZBAARAAAREI2AFKjVo0KCwsDBCJCkpiWGYy5cvEwvXCA0N1XvdV1tUKuvKLYVSpVCqGhqhUnqksQsCIAAC4hGwDpVavHgxQXL06FGGYYqLi4mFa5h3LVVapYVK6RHGLgiAAAiIT8AKVMrEK358dtSq+M6CbaiUIBYYQQAEQEBkAtT5XPrvpWbNmjVkyBDCZfr06SLcPQGVIsDRAAEQAAEJCUisUhUVFaebN4Zhli1bdvr06YKCApZlQ0JCpk6dynHh7kT/5JNP1Gp1ZGSkOHeiQ6Uk/FAiNAiAAAgQAhKrVGxsrN4tD4GBgSzLBgYGBgQEkCzj4uJGjhzp7Ozs6ekpzq96oVIEPhogAAIgICEBiVXKQpVTq6LGhUpREcEBBEAABEQgQJ3PRfpeyrylUquihoNKURHBAQRAAAREIECdz6FS+L2UCJ9DhAABEAABYQJQKWEuWEsJc4EVBEAABMQlAJUS5g2VEuYCKwiAAAiISwAqJcwbKiXMBVYQAAEQEJcAVEqYN1RKmAusIAACICAuAaiUMG+olDAXWEEABEBAXAJQKWHeUClhLrCCAAiAgLgEoFLCvKFSwlxgBQEQAAFxCUClhHlDpYS5wAoCIAAC4hKASgnzJiqFl8oLA4IVBEAABEQhAJUSxlxWVce9BREqJQwIVhAAARAQhQBUShgzVEqYC6wgAAIgIC4BqJQwb6iUMBdYQQAEQEBcAlApYd5QKWEusIIACICAuASgUsK8rVelGhp1Nyq1ZzWlNyq1XG219Q2H1Fe+3HX+r9/EKpSqT7acHjR377ivDiuUqqmRKUtjMv69My0iIeejzakKpSou81pGcfmuM0Wr4y5+9t8zl25UZV+9teJQluZmlTApltXpdBW19ReKm9yWH8z8z7GCr/ZmrDiUVVBSVVRanXyx5HjejbTCsks3qorLahob8Yz5lkDCDgIgIEAAKiUAhWVZaVVKp9MlXby+L634ie/ivOfu5e7j+GTL6f8cK9icUvBT3MXDGVembzz5UvhR7pBCqRr6732krdcwckjPk7r7wJw9H29OfTA0hvOc+ENTAsO+uL1LPd3Q4YE5ezijz7x9U34+diTjavbVW9XaBuFRgRUEQKD9EYBKCY+5yCqVe73yg/+cMpzEzWX5y6KDc3ecM703zxCV6c56nqMXHdSzcLs+81rUUUF/vnHYFzGL96p/al7e7TpTNH9X+o7Uwqu3ash6UXgUYQUBELB+AlAp4TE0o0rpdLqSitr8kkoSqaK2fm18Dn8WNlf7cMaV1XEXuWtrc7Y3ydJfv4k9VXDTxOtsOp3u6q0acvN9Q6OurqGRZdna+gYuwxdWJf6cmKvcdlahVD23IuGLnWlHLlzNvlpRWVtPquM3dLq7ru/VNzTuSyv+ZMvpiIScH45k/3tn2s7ThZ9EnZ4ZdXrCykTfBQfujcP4ZXHBv6W+ujop+WIJPzraIAACNkAAKiU8iGZRqWu3aufvSufPvE8ti+fvttSe8vOxtMKyrSc1erO85maVtr7RRMkRLswarMVlNSfybszZfm7ujnPvbjjBUfp7+NH/W53sNfv2FcKW0BnaB925ZPrM9wmpBTetAQByBAEQ+B8BqNT/WPBb96ZSZVV17244sXivWqfT+YUJX/gynEYVSlX0Kc3NOzc78NNAuyUCjY26am3DV3sz5u9K/3TLGfJVmSDeloxRxwuKy2rUl8vLqupaCgQ7CICAtASgUsL870GlDqmvtDQbGtoPpl+x+SWRMFlLWpMuXlduOxuZmJuUfT0u81pqwc1D6iunCm6e05QZDkFLlhHz9287qWnpGqYl00ffIAACAgSgUgJQ7uEevy0nLrU062nrm77aKamo/du3sXvPXRaOB6soBG5Wag+pryyNyZi85o+WxsuI/Ynv4tbG5yRmXee+rhMlZQQBgfZOACol/Alo1VqqSltvOLWN++qwcNewyomArnlLLyr/19YzhoNItby74XhK7g3caiinIUUutkYAKiU8oq1SqTXxF7npbN3RXE6xvj+YJdwvrFZCoKSitrC0+pD6ym8pBe/9csJ/6RGqYimUqqeXx49a2PR9ZERCzpXyGm19o979L1ZSPdIEARkRgEoJD4bpKpVWePs7jy3HLwn3BattEWho1P36R/6T38WZolsKpYr/Q7Hg31IX71HP35UeEt30O4FHvj78U9zFqZEp205qrt2qtS1OqAYEzEMAKiXM0USVIqsohVLFff8k3B2sNk2grKrukPrKwNl73ll/3ETpMu72YvNDPYaHxvwYezEp+zoWZDb98UFxFAJQKWFARKVa+p5cp9PtSyvmzzXCHcHaXgk0NOpuVmqv3apNLbiZdPF62B419+DEhbvTv96XsWRfRmufLPXaT8lHMq7ml1Ti30Pt9TPVTuuGSgkPfFn17bcgtqRSS2MyIFHC7GC9JwK3aurOF5VFJDTdQ7hkXwb3aGD+Z0yv/cCcPTtPF1a08NSPe0oBJ4GAHAlApYRHhapS/ClDuAtYQcAcBC6XVb/3y+0HcPA/dfz2mLBDyRdLausbcG3QHMjRh7wISK9S4eHhnp6eLi4uvr6+CQkJgnh++OEHHx8fV1dXb2/vX375RdCHb6RWxXcWbBtXKW19I3lUee71/z2gT7ArGEHAjARq6xs+iTrNlyjD9vAvYl784ejFaxVmjIuuQEAqAtT5nLFoZlFRUU5OThEREWq1Ojg42MPDo6CgQC/ijz/+2LFjx6ioqJycnN9++61Dhw67du3S89HbpVal52+4a1ylkrKvK5Sq4aExpVW33+Fk2AMsIGBpAs1fjl4e0vJLWzgBW3Eoi/+wY0tnhf5BwLwEqPO5ZVXKz89v+vTppCQfH5+QkBCyyzUefvjhzz//nBiDg4MfeeQRsivYoFYleBbfaFylXliVqFCqZvyWyj8FbRCQkEBDo66sui614OZrPyU/NH+/4QJrQIjqpfCjgetSbtXgoYUSDhRCt5oAdT63oEpptVoHB4ft27eTrGfMmOHv7092uYavr++8efOIMSQkxMnJqa5O/y+ttra2/M6m0WgYhikvLydntbZhqFJXy2s2pxRUaevXH83lpoCtJzWt7Rb+ICAagfjMayHRZ7mXMhuKlkKpOn2pVLRkEAgE7pmAlCpVVFTEMExSUhLJPiwszNvbm+xyjdmzZ/fq1evkyZM6ne7EiRM9evRgGObyZf0H4oWGhjJ3b+ZVKcO/cyMvWdcrAbsgIC2B5IslX+46b/gZ5iw1dXg5srTjg+jGCEivUsnJySTBRYsWDR48mOxyjerq6rffftvR0dHBwaFPnz6zZs1iGObq1at6bhZdSzU06gz/wvUSwC4IyJ+ATqfbdabI8MOsUKrm70pv6XcX8q8LGdowASlVysQrfhz9uro6jUbT0NDA3UzR2Nj0oPGWNmpVLZ1I7HpX/HKuVej9YS87kEmc0QABayQQl3lt0Jy9eh9shVJVW4+llTWOp83mTJ3PLfi9FMuyfn5+QUFBhO6QIUMM754gR7mGv7//66+/rmfU26VWpedvuKunUgfS9d8dZXgKLCBgjQQaGnWrDmfpadWnW87gp1fWOJo2mTN1PresSnF3okdGRqrV6pkzZ3p4eOTn57MsGxISMnXqVI54Zmbmxo0bs7KyUlJSJk2a1K1bt7y8POODQa3K+OlN75e6+9kT4bHZ/D/jZ78X/l0XtVs4gIBsCVRrG/gfctLel1Ys25yRWHsgQJ3PLatSLMuGh4crFApnZ2dfX9/4+HgOemBgYEBAANdWq9UjRoxwc3Pr1KnTiy++eOHCBerAUKui9qCnUp//966XD5VV699hSO0QDiBgFQQKS6sFf4D16x/5DY06qygBSdoYAep8bnGVsgRQalXUoHoqRf5dqVCq5u44Rz0dDiBg1QSqtPWpBTf5H3vSPpF3w6pLQ/JWR4A6n0Olmm7TIH+iCqXqanmN1Q0zEgaBeybAPc2d/ydA2kezr+Mu9nsGixNNJACVEgbFX0vpdLdvQ3/lxyS8qk6YF6y2TuBC8S0iToKNNyNT6huM3Xlr64RQn6UIQKWEyfJV6uCdG/xuVOKpfcK4YG0/BMqq6yISciY2v6dRUK7ySyrLqurw06v285GwdKVQKWHCRKW09Y2eISrur1HYFVYQaK8EdDpdYWn1wt3phnL1yNeH8bbG9vq5MHPdUClhoOU1t9+CqK1vJH+Bwq6wggAIsGxNXcPPibcfccn9yeAbXHwuzEIAKiWMESolzAVWEKARqKm7/bsrqBQNFY6bRAAqJYyJr1KjFh7AFT9hTLCCgBABr9l7cDesEBjY7oUAVEqYGlGpt9cf5yRq5+lCYVdYQQAE7iZgRKXqGxqrtPWlVVrcwn43M+y1SAAqJYyGqBT5UmrvOf13hQifCSsItHsCnErN3XFu1tazU34+9sKqxEeXHH4wNGbAnRuRyJ8V50l2w2Ozs6/eavf8AOAuAlCpu3CQHUOVOpl/kxxFAwRAwAgBwUetEykyvbEhKS+/pNJIIBxqDwSgUsKjbKhS+GsRJgUrCBgQWB138f9WJ3/+3zPLD2ZuO6k5pL5yMv9G9tVbV8prSqu0lbX1dQ2NNyu1sReu/pFT8sOR7AW7059aFm9EvebvSsevFQ0wtxcDVEp4pA1VCn8kwqRgBQGzErh2q3b+rvSApUcMRWv90VyzhkJn1kEAKiU8ToYqhae/CJOCFQQsSWD90bt+g3UyH8+6tSRuWfYNlRIeFkOVEvaDFQRAwPIETvEe0G75aIggLwJQKeHxgEoJc4EVBCQisPtsEXcNMCUXyymJxkCisFApYfB6KjXtlxPCfrCCAAiIRYBTqX9tPSNWQMSRBQGolPAw6KnU9lSNsB+sIAACYhGYvvGkQqma8vMxsQIijiwIQKWEh0FPpeIyrwn7wQoCICAWgfm7mh6+DpUSi7dc4kClhEdCT6WyruD38MKgYAUB0QgcaH7T2/MrE0SLiEByIACVEh4FPZUSdoIVBEBARAIpuTcUStW4rw6LGBOhpCcAlRIeA6iUMBdYQUA6AulF5QqlatTCA9KlgMgSEIBKCUO/dectiAqlKiIhR9gJVhAAAREJXCi+pVCqfBdApUSELoNQUCnhQeCr1A9HsoWdYAUBEBCRQOaVJpUaCZUSkbkcQkGlhEeBr1IfbU4VdoIVBEBARAJZzSo1Yv5+EWMilPQEoFLCYwCVEuYCKwhIRyD7atNa6iGolHRDIElkqJQwdr5KfbnrvLATrCAAAiISyL5aoVCq/vwl1lIiQpdBKKiU8CDwVeqbmAvCTrCCAAiISODitSaVejA0RsSYCCU9AaiU8BjwVWrV4SxhJ1hBAAREJJDTrFLDoVIiMpdDKKiU8CjwVaqwtFrYCVYQAAERCeRer1QoVVApEZHLIpR5VEqn08XGxi5YsOCdd96ZPHnyxx9/vG7dukuXLklVIrUqamJ8lSqt0lL94QACIGBpArdV6gtc8bM0aXn1T53PGeP5VldXh4WF9e3b19XVdcyYMS+//PIbb7zx7LPP9u/f38HB4dlnn/3jjz+M92CJo9SqqEH5KlVeU0f1hwMIgIClCeQ1r6WGQaUsDVpm/VPnc4pK9evX75VXXtm9e3ddnf5Unp+fv3jx4vvvv3/t2rVGqg4PD/f09HRxcfH19U1IEH6O5KZNm/785z+7ubn16tXrrbfeKikpMdIhy7LUqoyfzrIsX6Vq6hqo/nAAARCwNIH8kqYrfkP/vc/SgdC/rAhQ53OKSqWlpRmvR6vVZmW1ePdBVFSUk5NTRESEWq0ODg728PAoKCjQ6zAxMdHe3n7FihW5ubmJiYnDhg176aWX9Hz0dqlV6fkb7vJVqq6h0dABFhAAAZEJFJRUKZSqIVApkblLHY46n1NUqo35+/n5TZ8+nXTi4+MTEhJCdrnGN9984+XlRYwrV67s168f2SWN2tra8jubRqNhGKa8vJwcbW2Dr1KtPRf+IAACliBw6UaTSvnMw1rKEnTl26cFVaqysjI+Pt5I6Vqt1sHBYfv27cRnxowZ/v7+ZJdrJCUlOTs779mzR6fTXblyxd/f//3339fzYVk2NDSUuXszi0qNWnjQMBYsIAAC4hPgVGrwvL3ih0ZECQlYUKXOnDljb29vpLaioiKGYZKSkohPWFiYt7c32SWNrVu3dujQwdHRkWGYiRMnGn4HxrKshdZSfmFQKTIOaICAlAQ0N5vWUt5zoVJSjoL4saVXqeTkZFL2okWLBg8eTHa5Rnp6eu/evZcuXXr27NmYmJgHH3zwnXfe0fPR26VWpedvuEuu+I1dfMjwKCwgAALiEygsrVYoVYOgUuKjlzQidT6nfy/VtYWtU6dOxtdSJl7xmzJlyquvvkooJSYmMgxz+fJlYjFsUKsyPEXPQlQKLwbVI4NdEJCKQBFUSir0ksalzud0lXJ3d//ss882GGzz5883rlIsy/r5+QUFBRECQ4YMMbx74uWXX37ttdeIT3JyMsMwRUVFxGLYoFZleIqepaK2XqFUKZSqR5fg9dV6bLALAtIQuK1Sc3DFTxr+UkWlzud0lRo3btz3339vWAD1eymWZbk70SMjI9Vq9cyZMz08PPLz81mWDQkJmTp1Ktfn+vXrHR0df/zxx5ycnKNHj44ePdrPz88wHN9CrYrvLNgmKuW/9IigA4wgAAIiE7hc1nTF74E5e0SOi3DSEqDO53SVCgsL+/LLLw3LuHTp0ltvvWVo17OEh4crFApnZ2dfX19yT2BgYGBAQADxXLly5dChQ93c3Hr37v3GG28UFhaSQ4INalWCZ/GNRKUe/yaWb0cbBEBAKgLFZTUKpWrgbKiUVCMgTVzqfE5XKWkSNxqVWpXRs5sOEpUajsexUGHBAQREIXClvEmlvKBSotCWTxDqfN7eVcp3wQH5jBYyAYH2TOBqs0oNCFG1ZwjtsHaolPCgk7XUhJWJwh6wggAIiEvg6q2mtZQnVEpc7JJHg0oJDwFRqYmroFLCiGAFAZEJXLtVy915K3JchJOWAFRKmD9RqRd/OCrsASsIgIC4BK5XQKXEJS6PaFAp4XEgKqVQ4iK4MCJYQUBkAqVVWm4thdcUiExe2nBQKWH+UClhLrCCgHQEymvqOJXS1uNlOtINg+iRzalSb7/99pw5c0gJs2fPfvvtt8mumA1qVdRkoFJURHAAAZEJEJWqrceLSUVmL2U46nzeijvR//rXvwYGBpJq3nzzzccff5zsitmgVkVNBipFRQQHEBCZAHm6JlRKZPLShqPO561QKWkr4UenVsV3FmxDpQSxwAgCEhIgKlVTh7WUhOMgdmjqfA6Vwt0TYn8oEQ8EBAmQfztCpQT52KqxrSr1O22TBBy1KmpW5O8B9/hRWcEBBMQhQP4qoVLiAJdJFOp8TllL2RndqG/usBAFalXUuOTvASpFZQUHEBCHQOWd9+lApcQBLpMo1PmcolIyKUMvDWpVev6Gu1ApQyawgIC0BKBS0vKXKjp1Pm+1StXU1EhVDIlLrYp4ttQgfw9YS7WECHYQEJkA+aus1uLuCZHZSxmOOp+bqlINDQ0LFizo06ePg4NDTk4Oy7Lz5s37+eefJSmOWhU1K/L3AJWisoIDCIhDoEp7+w3aUClxgMskCnU+N1Wl5s+f7+XltWnTJjc3N06ltmzZMnbsWEnqpFZFzQoqRUUEBxAQmQBRqSptvcihEU5CAtT53FSVGjhw4KFDh1iW7dChA6dSGRkZXbp0kaQ2alXUrKBSVERwAAGRCVRrG7gnJEGlRCYvbTjqfG6qSrm6uubn5/NVKj093cPDQ5LyqFVRs4JKURHBAQREJkBUqrIWaymR2UsZjjqfm6pSo0aN2rhxI1+lvvzyy0cffVSS4qhVUbOCSlERwQEERCZQU3d7LQWVEpm8tOGo87mpKrVr167OnTt//fXX7u7u33zzzXvvvefs7HzggDSvY6dWRYUOlaIiggMIiEyAqFQF1lIio5c0HHU+N1WlWJaNiYnx9/f38PBwc3N75JFH9u/fL1Vp1KqoiUGlqIjgAAIiE4BKiQxcJuGo83krVEomJbEsS62KmipUiooIDiAgMgGolMjAZRKOOp+3TqVOnDjx66+/bty48eTJkxJWSK2KmhtUiooIDiAgMgGiUrdq6kQOjXASEqDO56aqlEajefTRR+3s7Lo2b3Z2do888silS5ckqY1aFTUrqBQVERxAQGQCtfW3756ASolMXtpw1PncVJUaP378mDFjLly4wNVz4cKFcePGjR8/XpLyqFVRs4JKURHBAQREJkBUqhxrKZHRSxqOOp+bqlKurq6pqan8Wk6dOuXq6sq3iNamVkXNBCpFRQQHEBCZgLa+kftVL1RKZPLShqPO56aqlLe3d0pKCr+YlJSUgQMH8i2italVUTOBSlERwQEERCZAVKqsGt9LicxeynDU+dxUldq5c6efn9+JEyd0Oh3LsidOnBg7duyOHTskKY5aFTUrqBQVERxAQGQCdQ2311JQKZHJSxuOOp9TVKpLly7c7RJdu3Z1dna2t7d3bt64RteuXSUpj1oVNSuiUr8m51Gd4QACICACAaiUCJBlGII6n1NUagNtk6RmalXUrIhKHUy/QnWGAwiAgAgE/qdSVbjiJwJvuYSgzucUlWp7HeHh4Z6eni4uLr6+vgkJCYYdBgYGMndvQ4cONXTjW6hV8Z0F2+QdAVApQT4wgoD4BOrJFT+olPj0pYtInc9brVLV1dXlvM14aVFRUU5OThEREWq1Ojg42MPDo6CgQO+UsrKy4jubRqPp1q1baGiono/eLrUqPX/DXaJSh9RYSxnigQUEJCBAVKq0SitBeISUiAB1PjdVpSorKz/88MP77rvP/u7NeF1+fn7Tp08nPj4+PiEhIWTXsLFjxw47OzvuFSF6R2tra4k4ajQahmHKy8v1fEzfhUqZzgqeICAOgYZGHXcnOlRKHOAyiWI2lfrggw+GDBmydetWNze3devWLVy4sF+/fps2bTJSp1ardXBw2L59O/GZMWOGv78/2TVsTJgwoaVfCoeGht59XdA8KnU4A2spw3GABQQkIEBU6mYl1lIS8JcqpNlUqn///rGxsSzLduzYMTs7m2XZX3/99dlnnzVSWFFREcMwSUlJxCcsLMzb25vs6jUuX77s4OCwZcsWPTu3a6G11JGMq4LhYAQBEBCZQOOdtRRUSmTy0oYzm0p5eHhwF+L69u3L/bw3NzfX+Lt6OZVKTk4mCBYtWjR48GCyq9dYvHjxn/70J62W/s8oalV6PRvukit+Ry5ApQzxwAICEhAgKnUDaykJ8EsWkjqfm/q91IMPPhgXF8ey7Pjx4z/77DOWZVesWNG3b18jlbXqip9Op3vggQdmzpxppENyiFoV8WypQVRq+cHMlnxgBwEQEJOATnf7eymolJjYJY9Fnc9NVally5atWLGCZdkjR464ublxv/D9/vvvjVfo5+cXFBREfIYMGdLS3ROxsbEMw6SlpRFnIw1qVUbO5Q4RlXr/VylfQULNEw4g0H4IQKXaz1jzK6XO56aqFL/TgoKC6OjoM2fO8I2Cbe5O9MjISLVaPXPmTHLZMCQkZOrUqfxTpkyZMmbMGL7FSJtalZFzuUNEpZbGZFCd4QACICACAaJSJRW1IoRDCJkQoM7n96JSraotPDxcoVA4Ozv7+vrGx8dz5wYGBgYEBJB+ysrK3Nzc1q5dSyzGG9SqjJ/OsixRqRN5N6jOcAABEBCHAHcnOlRKHNoyiUKdzykqtYK2SVIntSpqVkSlTuZDpai04AACIhHgVOo61lIi8ZZFGOp8TlEpT6PbgAEDJKmSWhU1K55K3aQ6wwEEQEAcAlApcTjLKgp1PqeolKyKIclQqyKeLTWgUi2RgR0EJCTAqdS1W/heSsJBEDs0dT5v7yp1qgBrKbE/lIgHAi0R8AxRKZQqqFRLfGzSDpUSHlayloJKCQOCFQSkIMCp1NVbNVIER0xpCEClhLlDpYS5wAoCkhIY0LyWgkpJOghiB4dKCRMnKpWKK37ChGAFAQkIQKUkgC5tSawSAAAgAElEQVR1SKiU8AhApYS5wAoCkhK4rVLluOIn6TCIG9ycKpWQkPDGG2+MHTu2sLCQeyZ6YmKiuOXcjkatippVtbaBu5sIaykqKziAgGgEvGbvUShVV6FSohGXQSDqfG7qPX7btm1zc3N77733XFxccnJyWJYNDw83/uYOy5VPrYoaGipFRQQHEBCfAKdSV6BS4qOXLiJ1PjdVpUaMGPHLL7+wLNuhQwdOpU6fPt2zZ09JSqNWRc2KqNTpS6VUZziAAAiIQ2Bg81oKKiUObZlEoc7npqqUm5tbXl4eX6VycnJcXFwkqZNaFTUrqBQVERxAQHwCnEoVl+F7KfHZSxaROp+bqlJeXl4HDx7kq9Qvv/wyZMgQSSqjVkXNiqjUGaylqLDgAAJiEXhgTtP3UlApsXjLIg51PjdVpZYsWTJ06NBjx4517NgxMTFx06ZN991336pVqySpkloVNSuoFBURHEBAfAKcSl0uqxY/NCJKRYA6n5uqUizLzpkzx83Nza55c3V1nTdvnmyroiZGVOqsBt9LUWnBAQREIjBozl6FUpWUff1Uwc0jF65uOX5p+cHMYzklIoVHGCkImFOlml7LVFV14sSJlJSUiooKKcq5HZNaFTU3qBQVERxAQHwC3BOSuF+J6P2/5maV+PkgoggEqPO5qWupDRs2VFZWipCxKSGoVVE7ISp1TlNGdYYDCICAOASe+T5BoVQNmrP3ka8PP708/oVViT7z9vHlKmjTSVwPFGcsRItCnc9NVanu3bu7u7tPmjRp9+7d9fX1ohUgGIhaleBZfCNUik8DbRCQCYFqbUNBSVVjo46fzwurEvlCxV0S5DugbdUEqPO5qSpVX1+/e/fuf/zjHx4eHt27dw8KCkpKSpIKDbUqamJEpdIKsZai0oIDCEhP4GD6Fb5WHc2+Ln1OyMAcBKjzuakqRZKpqqratGnTc8895+zs7OXlRexiNqhVUZOBSlERwQEEZEjgaPZ1olU7Upse1YbN2glQ5/NWqxTLstevX1+1atWwYcPs7e0lAUStipoVVIqKCA4gIE8CZzWlRKjKa+rkmSSyMp0AdT5vhUpxq6hnn33WycnJy8tr7ty5arXa9FTM6EmtihoLKkVFBAcQkC2B6xW1nFD5zNsn2ySRmIkEqPO5qSo1efJkDw+P++6774MPPpDwGymubGpVVDpEpc4X4XspKi04gIDsCOxILeSEakNS05PbsFkvAep8bqpKvf766yqVSvK7+7iRoFZFHTCoFBURHEBA5gQ4lXr5R8lu45I5H2tJjzqfm6pSsiqYWhU1W6gUFREcQEDmBH44kq1Qqh7/JlbmeSI94wSo8zlFpVasWFFT0/R84hUtbMbDW+gotSpq3Jq6229BxBU/Kis4gIA8CeRer1QoVQNCVDrdXb+vkme2yKolAtT5nKJSnp6eJSVND9HyFNoGDBjQUmCL2qlVUaNDpaiI4AACMidQUVvPXfSrrJX4OQMyByXz9KjzOUWl5FketSpq2kSl0ovKqc5wAAEQkCEBnU7HqdT1iloZpoeUTCRAnc9NVan58+dXVd31tMfq6ur58+ebmId53ahVUcNBpaiI4AAC8ifAPZ326i28NVH+Y9VihtT53FSVsre3v3r1Kj9OSUmJ9f6ql6iU+jLWUvxRRRsErIkA3u1rTaPVQq5mUyk7O7tr167xoxw+fLh79+58i2htalXUTKBSVERwAAH5Exg0t+l9VIWleGui/MeqxQyp8zl9LdWlS5euXbva29tzja7NW6dOnezt7T/44IMWI985EB4e7unp6eLi4uvrm5CQcMd8139ra2vnzJlz//33c88GjIyMvOuwwQ61KoMz9A1EpTKKsZbSh4N9ELAWAtx7PS7duOvLCGtJHnlyBKjzOV2lNmzYsH79ejs7uxUrVmy4s23evDk5OZlKOSoqysnJKSIiQq1WBwcHe3h4FBQUGJ41ceLEMWPGHDx4MC8vLyUlhfpsC2pVhiH0LFApPSDYBQFrJDD0301vn8ovkcur76yRoeQ5U+dzukpxNcTFxdXVtfrBjn5+ftOnTycUfHx8QkJCyC7X2LdvX+fOnW/cuKFnN7JLrcrIudwholIXim9RneEAAiAgTwLDQ2MUSlXONSlfHS5PMlaUFXU+p6hUefntC2LlLWxGWGi1WgcHh+3btxOfGTNm+Pv7k12uERQU9MQTTyiVyj59+gwaNOizzz6rrha4ylxbW0tS0Gg0DMOQ3PQ6NGWXqBSu+JmCCz4gIE8CD83fr1Cq8Nt8eY6OiVm1VaXIrX12dnb2d2+cxUgeRUVFDMPwL9+FhYV5e3vrnfL000+7uLg8//zzKSkpe/bsUSgUb7/9tp4Py7KhoaHM3ZtZVAr/CjNEDQsIWAuBUQsPKJSqdzecsJaEkachgbaqVFxcHPeE2bgWNsOQxMKpFP/rq0WLFg0ePJg4cI3x48e7urqWld1+Nnl0dLSdnZ3hcspCaymolN5wYBcErIgA96ve+bvSrShnpKpHoK0qpdddq3ZNvOL35ptvDhw4kPSsVqsZhsnKyiIWwwa1KsNT9Czkih9USo8MdkHAigh8vS9DoVQt2A2VsqJB00+VOp9Tvpci/e3bty8xMZHb/eGHHx566KHXX3/95s2bxEGw4efnFxQURA4NGTLE8O6JNWvWuLm5VVTc/v5z586d9vb2hmsp0gnLstSq+M6CbaJSuddxd5AgIRhBwAoIcCqFtZQVDFXLKVLnc1NVavjw4Xv27GFZ9ty5c87OzrNnzx4zZsxbb73VcuimI9yd6JGRkWq1eubMmR4eHvn5+SzLhoSETJ06lTu3oqKiX79+r776anp6enx8/KBBg9577z3j3VKrMn46y7JQKSoiOICA/AksaV5LQaXkP1JGMqTO56aqlIeHR15e0zsxQ0NDX3nlFZZlT5061bNnTyOxuUPh4eEKhcLZ2dnX1zc+Pp4zBgYGBgQEkHMzMjKefPJJNze3fv36ffrpp8YXUlhLEW5ogEA7JwCVsoEPgNlUqmvXrunpTRd/H3nkkTVr1rAsm5eX5+bmJgkjalXUrLCWoiKCAwjInwCnUl/uOi//VJFhSwSo87mpa6kXXnjh6aefXrBggZOTU2FhIcuy+/fvHzRoUEuBLWqnVkWNDpWiIoIDCMifwNKYprsnoFLyHykjGVLnc1NVqqCg4Pnnn//zn//8888/c/Fmzpz58ccfG4ltuUPUqqihoVJURHAAAfkTgErJf4yoGVLnc1NVihpJTAdqVdRkoFJURHAAAfkT4FQq9Hdc8ZP/WLWYIXU+b4VKNTQ0bNu2beHChYsWLYqOjm5oaGgxrIUPUKuixicqlYc70amw4AACciXwTcwFhVIFlZLr+JiUF3U+N1WlsrOzBw0a5O7uPnLkyBEjRri7uw8ePPjixYsmZWFuJ2pV1IBQKSoiOICA/AlApeQ/RtQMqfO5qSr17LPPPvPMM+TJ5SUlJc8888xzzz1HzcASDtSqqEGhUlREcAAB+RP4dj/WUvIfJUqG1PncVJVyd3c/d+4cP9qZM2c8PDz4FtHa1KqomUClqIjgAALyJwCVkv8YUTOkzuemqlTXrl35TzdnWfbo0aNdu3alZmAJB2pV1KBEpfD+NCorOICAbAlwKvXFzjTZZojEqASo87mpKjV16tRhw4YdO3ZM17z98ccfw4cPDwwMpGZgCQdqVdSgUCkqIjiAgPwJfNd8xQ8qJf+RMpIhdT43VaVKS0snTpxoZ2fn3LzZ29u/9NJL5HUbRjKwxCFqVdSgUCkqIjiAgPwJcCo17Re8X0r+Y9VihtT53FSV4iJkZ2fv2rXr999/z87ObjGm5Q9Qq6KmQFSqoKSK6gwHEAABeRLYdCyfe8VUTZ1kP4yRJxkryoo6n9NVqrGxcenSpePGjfvLX/4ye/bsmpoayeunVkXNECpFRQQHEJA/AW19I6dSeFGc/AerpQyp8zldpRYvXmxvbz9+/PiJEye6uLhMmzatpWCi2alVUTOBSlERwQEErILAg6ExCqXq4rXbL6izipyRJJ8AdT6nq5S3t3d4eDjX6b59+1xcXHQ6HT+G+G1qVdSUoFJURHAAAasg8Ocv9yuUquyrUCmrGC6BJKnzOV2lXFxcCgoKuL51Op2zszP3THSBaGKZqFVREyEqdekGvpei0oIDCMiXwEPzOZW6Jd8UkZlRAtT5nK5SdnZ2165dI1E6dOiQk5NDdiVpUKuiZlWtbeAuZ0OlqKzgAAJyJjCiWaWyrkCl5DxKxnKjzucmqdT777//yZ3N2dn5nXfeubP3ibHgFjtGrYoaGSpFRQQHELAKAiMXHFAoVZlQKasYLaEkqfM5XaUCAgL+2sL2+OOPCwW1uI1aFTUDXPGjIoIDCFgFAd9mlbpQjLWUVQyXQJLU+ZyuUgK9Sm2iVkVNEGspKiI4gIBVEBi1sGktlVFcbhXZIklDAtT5HCqFuycMPzawgIDVEBi18KBCqVJfhkpZzZDpJdpWlfrqq68qKyv1OuXvHjt2TKVS8S0itKlVUXPAWoqKCA4gYBUERi9qUqn0IqiUVQyXQJLU+Zyylpo6deqf/vSn6dOn7927l9zpV19ff/bs2fDw8IcfftjT0zMhIUEgsiVN1KqowaFSVERwAAGrIPCXZpU6X1RmFdkiSUMC1PmcolIsy549e/af//xn165d7e3tnZycOnToYN+8jRo1as2aNbW1tYZRLW2hVkVNoEpbjzvRqZTgAALyJ+AX1rSWSiuESsl/rIQzpM7ndJXiOtbpdGfOnNm5c+dvv/128ODB69evCwcUxUqtipoFVIqKCA4gYBUExoQdgkpZxUi1lCR1PjdVpVoKIImdWhU1K6JSmpu4e4JKCw4gIF8CYxc3qdQ5DdZS8h0j45lR53OoFFTK+EcIR0FA1gQeblapM5dKZZ0lkmuZAFRKmE1l7e3vpbCWEgYEKwhYCYFxXx1WKFWnoVJWMl6GaUKlDJk0WYhKFZZWC3vACgIgYA0EOJVKLbhpDckiRwECUCkBKFApYSiwgoAVEnjk66a11CmolBWOHZcyVEp46CruXPHDWkoYEKwgYCUEHl3SpFIn87GWspIBM0jTbCpVWVk5b968hx9+eODAgQN4m0FEfUN4eLinp6eLi4uvr6/g739jY2OZu7eMjAz9Xu7ep1Z1t7vAHlRKAApMIGCFBB5bcqRZpW5YYe5IuYkAdT439R6/yZMn9+7de9asWcuXL/+etxnHHBUV5eTkFBERoVarg4ODPTw8yAsVyYmcSmVmZhbf2RoaGshRwQa1KsGz+EaiUkX4XorPBW0QsDYC/kubVOpEHlTK2kbuTr7U+dxUlercufPRo0fvdGvqf/38/KZPn068fXx8QkJCyC7X4FSqtLQVN5JSq9ILYbgLlTJkAgsIWCOBgGaVSsj635tarbGK9pwzdT43VaU8PT3VanWrUGq1WgcHh+3bt5OzZsyY4e/vT3a5BqdSnp6evXr1+tvf/nbkyBE9B263tra2/M6m0WgYhikvv/fnS5Ln+F27JcETngQLhBEEQOAeCAyas1ehVP2SnHcP5+IUORAwm0pt3Ljx1VdfrapqxW9gi4qKGIZJSkoiIMLCwry9vcku17hw4cLatWtPnTqVnJwcFBRkZ2cXHx+v58OybGho6N3fXrVJpViWXXko69v9FwwDwQICIGBFBLi7J7acuGRFOSNVPgGzqdSIESM6duzYoUOH4cOHj+Rt/GB6bU6lkpOTiX3RokWDBw8mu4KNCRMmvPDCC4aHzLuWMuwfFhAAAWsk8Na6FIVSBZWyxrHjcjabSn3ZwmYEjYlX/PR6WLRokY+Pj55Rb5dalZ4/dkEABGyVwG2VOo61lLWOMHU+N/V7qXsD4OfnFxQURM4dMmSI4d0T5CjXeOWVVx5//HE9o94utSo9f+yCAAjYKoG31x9XKFVRxwtstUCbr4s6n7dOpU6ePLlx48ZNmzalpqaawo67Ez0yMlKtVs+cOdPDwyM/P59l2ZCQkKlTp3I9LF++fMeOHVlZWefPnw8JCWEYJjo62njn1KqMn46jIAACNkPgHaiUlY8ldT43VaWuXr36+OOP29nZde3atUuXLnZ2dn/729/I23uNUAoPD1coFM7Ozr6+vuS2iMDAwICAAO6sJUuWDBw40NXVtWvXro8++uiePXuM9MYdolZF7QEOIAACtkHg3Q1Na6nfUrCWstbxpM7npqrUa6+9NmrUKHIzenp6+ujRoydPniwJGGpVkmSFoCAAAuIT4FRqM1RKfPRmikidz01VqU6dOh0/fpyfVUpKSufOnfkW0drUqkTLBIFAAASkJfDuhhMKpQoqJe0otCU6dT43VaU6dOhw+vRpfiqpqakdO3bkW0RrU6sSLRMEAgEQkJbAe780qdR/juGKn7TjcO/RqfO5qSo1ceJEf3//oqIiLpfCwsKAgICXXnrp3lNrw5nUqtrQN04FARCwJgKcSm061nRbFjZrJECdz01VqUuXLo0cOdLJycnLy2vgwIFOTk6+vr4ajUYSKNSqJMkKQUEABMQnMK15LbXxD6iU+OzNE5E6n5uqUlw6Bw4cWLly5YoVKw4ePGieBO+pF2pV99QrTgIBELA+Av/8temKH1TK+kbuTsbU+bx1KnWnW4n/S61K4vwQHgRAQCwC7/96UqFU/Yq1lFjAzR6HOp9TVGrFihU1NTUsy65oYTN7xqZ0SK3KlE7gAwIgYAMEbqsUnolutWNJnc8pKuXp6VlSUsKyrKfQNmDAAEnIUKuSJCsEBQEQEJ/A9I3NaymolPjozRSROp9TVMpMaZi5G2pVZo6H7kAABORKIGhTk0rh/VJyHR96XtT5/F5UqqGh4fTp0zdv3qTHt4wHtSrLhEWvIAACsiPwwaZTCqVqQxLegii7oTExIep8bqpKBQcH//zzzyzLNjQ0jBs3zs7OzsPDIzY21sQ8zOtGrcq84dAbCICAbAlApWQ7NCYmRp3PTVWpvn37njhxgmXZHTt29OnTJzMzc+7cuePGjTMxD/O6Uasybzj0BgIgIFsCH/ynaS21/miubDNEYsYJUOdzU1XKxcWF+w3vtGnTgoODWZbNzc3FE5KM08dREAABSxP4sFml1kGlLA3aYv2bTaXuv//+/fv3NzQ09O/ff/fu3SzLnj9/vkuXLhbL3FjH1KqMnYxjIAACNkQAKmXtg0mdz01dS4WGhnbu3NnHx+f++++vra1lWTYyMnLs2LGSAKJWJUlWCAoCICA+gY82pyqUqshEXPETn715IlLnc1NVimXZrVu3Llu2jDy7b8OGDTt37jRPmq3shVpVK/uDOwiAgLUS+LhZpX6GSlnrALLU+bwVKiUfCNSq5JMqMgEBELAogRm/Na2lIhJyLBoFnVuOAHU+p6gUnpBkubFBzyAAAm0nAJVqO0Npe2irSuEJSdKOH6KDAAgYJxCMtZRxQLI/2laVkmeB1KrkmTayAgEQMDuBmVGnFUrV2nhc8TM7WpE6pM7nlCt+IqXZyjDUqlrZH9xBAASslQBUylpH7k7e1PncVJV65ZVXvvrqqzvdNv136dKlr776Kt8iWptalWiZIBAIgIC0BD5pXkutib8obRqIfs8EqPO5qSrVvXv3c+fO8fM4d+5cjx49+BbR2tSqRMsEgUAABKQl8MmWpit+P8VBpaQdh3uPTp3PTVUpV1fXCxcu8BPJyMhwdXXlW0RrU6sSLRMEAgEQkJbAp1vOQKWkHYI2RqfO56aq1OjRo+fPn8/PJjQ01NfXl28RrU2tSrRMEAgEQEBaApxKPf5N7LqjuUcyrtY1NEqbD6K3lgB1PjdVpX7//XdHR8c333xzQ/M2depUR0fHHTt2tDYhs/hTqzJLFHQCAiAgfwKzt59TKFX8/10oviX/tJEhIUCdz01VKZZlVSrVuHHj3N3d//SnPz3++ONxcXEkjMgNalUi54NwIAACUhG4UHzro82poxcdfHjxIaJVjY06qfJB3NYSoM7nrVCp1sa2nD+1KsuFRs8gAAKyJXAk4yonVIv3qGWbJBLTI0Cdz1uhUqWlpREREbNnz75x4wbLsqdOnSosLNSLJ84utSpx0kAUEAABuRHgHj77/q8n5ZYY8mmJAHU+N1Wlzp49e9999z3wwAOOjo45OU0/8543b97UqVNbCmxRO7Uqi0ZH5yAAArIl8J9jBQql6r1fml4sjs0qCFDnc1NV6oknnvjXv/7FsmyHDh04lUpKSlIoFFQK4eHhnp6eLi4uvr6+CQkJRvyPHj3q4ODw0EMPGfHhDlGrovYABxAAAZskEHW8SaXe3XDcJquzyaKo87mpKtWpU6eLF5t+N0dUKj8/38XFxTi1qKgoJyeniIgItVodHBzs4eFRUFAgeEpZWZmXl9dTTz0FlRLkAyMIgIApBLacuKRQqt5al2KKM3zkQMBsKtWjR4/U1FS+Su3fv79fv37Gi/Tz85s+fTrx8fHxCQkJIbv8xqRJk+bNmxcaGgqV4mNBGwRAoFUEtp3UKJSqqZFQqVZhk9LZbCo1bdq0l156qa6urkOHDrm5uQUFBSNHjgwODjZSnFardXBw2L59O/GZMWOGv78/2SWNdevWjR49ur6+3ohK1dbWlt/ZNBoNwzDl5eWkBzRAAARAgGXZHamFCqXqjYhjoGEtBMymUuXl5Y888kiXLl0cHBz69+/v5OTk7+9fWVlpBERRURHDMElJScQnLCzM29ub7HKNrKysHj16ZGZmsixrRKVCQ0OZuzeolB5J7IIACPx+pkihVE1e8wdQWAsBs6kUV/Dhw4e/+eabJUuWHDx4kIqAU6nk5GTiuWjRosGDB5NdlmUbGhpGjx69evVqzmhEpbCW4nNDGwRAQJCA6uxl7idTgkdhlCEB86hUfX29g4NDWlpaqyo05YpfaWkpwzAOdzY7Oztu9/Dhw0ZiUasyci4OgQAI2DCB+MxrnEqd05TZcJm2VBp1Pjf1Hj8vL68zZ860Fo2fn19QUBA5a8iQIXp3TzQ2NqbxtqCgoMGDB6elpRm/lkitikREAwRAoF0RqGto5FTqaPb1dlW49RZLnc9NVal169Y9++yz3FMnTMfB3YkeGRmpVqtnzpzp4eGRn5/PsmxISIjgL4KNXPHjB6VWxXdGGwRAoF0ReHp5vEKpSsyCSlnHsFPnc1NVasSIER06dHBxcfH29h7J26gYwsPDFQqFs7Ozr69vfHw85x8YGBgQEGB4LlTKkAksIAACrSLAqVRC1rVWnQVnqQiYTaVCQ0O/FNokKYxalSRZISgIgIAcCDzzfYJCqYrPhErJYTToOVDnc1PXUvRQInpQqxIxF4QCARCQF4Fnm1UqDiolr2FpMRvqfE5Xqaqqqg8++KBPnz733Xff66+/fv269Fd7qVW1yAMHQAAEbJ0AVMq6Rpg6n9NV6vPPP3d3d582bdrHH3/cvXv3V199VXIE1KokzxAJgAAISEXguRVNV/xiL1yVKgHEbRUB6nxOVykvL6/ffvuNi5qSkuLo6NjQ0NCqJMzuTK3K7BHRIQiAgLUQeH5lk0odgUpZyYBR53O6Sjk5OfHfdujq6nrp0iVpy6dWJW16iA4CICAhgQkrE5tUKgNrKQkHoRWhqfM5XaXs7e2vXfvf3TLc02ZbkYIFXKlVWSAmugQBELAOAlAp6xinO1lS53O6StnZ2T333HN/v7M5Ojo+9dRTd/b+fieQqP+lViVqNggGAiAgJwIvrGpaSx3OuCKnpJBLiwSo8zldpd4yurUY2ZIHqFVZMjj6BgEQkDWBic0qdUgNlZL1MJHkqPM5XaVIX/JpUKuST6rIBARAQGQCE384qlCqDqZDpUQGf4/hqPM5VOoeyeI0EAABeRLgVOoAVEqew2OQFVTKAAkMIAACNk3gxea1FFTKWgYZKmUtI4U8QQAEzEPgpfCmK377zxebpzv0YmECUCkLA0b3IAACMiPw92aVioFKyWxcWkoHKtUSGdhBAARskwCnUvvSsJayjvGFSlnHOCFLEAABcxF4+cckhVIFlTIXT0v3A5WyNGH0DwIgIC8Cr9xWqcvySgvZtEAAKtUCGJhBAARslACnUnvPQaWsY4ChUtYxTsgSBEDAXAReXd10xW8PVMpcQC3cD1TKwoDRPQiAgMwI/N/qZKiUzMbEWDpQKWN0cAwEQMD2CPzfT00qpTqLK37WMbZQKesYJ2QJAiBgLgKcSu0+W2SuDtGPRQlApSyKF52DAAjIjsBrzWupXWegUrIbGsGEoFKCWGAEARCwWQKT1jRd8fsdKmUlIwyVspKBQpogAAJmIjB5zR9QKTOxFKMbqJQYlBEDBEBAPgQ4ldp5ulA+KSETIwSgUkbg4BAIgIANEnh9bdNaCiplLUMLlbKWkUKeIAAC5iHAqVTwb6nm6Q69WJgAVMrCgNE9CICAzAiM++qwQqmavytdZnkhHWECUClhLrCCAAjYKoEl+zKgUlY0uFApKxospAoCIGAGAlApM0AUsQvpVSo8PNzT09PFxcXX1zchIcGw9sTExHHjxnXr1s3V1XXw4MHLli0z9NGzUKvS88cuCIBA+yHAqdSXu863n5KtulLqfM5YtLyoqCgnJ6eIiAi1Wh0cHOzh4VFQUKAXMTU1dfPmzefPn8/Ly9u4caO7u/uaNWv0fPR2qVXp+WMXBECg/RBYGtN0xQ8qZS0jTp3PLatSfn5+06dPJ7B8fHxCQkLIrmDj73//+5QpUwQPESO1KuKJBgiAQHsjAJWyrhGnzucWVCmtVuvg4LB9+3aCbMaMGf7+/mTXsJGamtqzZ8+IiAjDQ7W1teV3No1GwzBMeXm5oRssIAAC7ZwAVMq6PgBSqlRRURHDMElJSQRZWFiYt7c32eU3+vbt6+zsbG9vv2DBAr6dtENDQ5m7N6gUgYMGCIAAIcCpVOjv+F6KIJF1Q3qVSk5OJoQWLVo0ePBgsstv5Obmnjt3bu3atd26dRo6IiMAACAASURBVNu8eTP/ENfGWsqQCSwgAAKGBL6JuaBQqqBShmTkaZFSpe7hih/LsgsXLmxpvUUQU6sinmiAAAi0NwJQKesacep8bsHvpViW9fPzCwoKIsiGDBlCvXtiwYIFCoWCnCLYoFYleBaMIAAC7YEAVMq6Rpk6n1tWpbg70SMjI9Vq9cyZMz08PPLz81mWDQkJmTp1Kofyhx9+2LVrV1bztm7duk6dOs2dO9c4ZWpVxk/HURAAARsm8O1+XPGzpuGlzueWVSmWZcPDwxUKhbOzs6+vb3x8PAcvMDAwICCAa69cuXLYsGHu7u6dOnUaOXLkjz/+2NjYaJwxtSrjp+MoCICADROASlnX4FLnc4urlCV4UauyRFD0CQIgYBUEoFJWMUwkSep8DpUirNAAARCwBQKcSn2xM80WimkHNUCl2sEgo0QQAAEege+av5eCSvGQyLoJlZL18CA5EAABsxOASpkdqUU7hEpZFC86BwEQkB0BqJTshsRoQlApo3hwEARAwOYIcCr1b3wvZSUjC5WykoFCmiAAAmYi8N2BTIVSBZUyE06LdwOVsjhiBAABEJAVAU6lXl/7h06nk1ViSEaQAFRKEAuMIAACNktgWfNaSqFUKZSq0iqtzdZpK4VBpWxlJFEHCICAaQTOako5ieL+37ST4CUZAaiUZOgRGARAQEICf/s2FsspCfmbHhoqZToreIIACNgUgYGz9yiUquKyGpuqyuaKgUrZ3JCiIBAAAdMI+Mzbp1CqLt2oMs0dXtIQgEpJwx1RQQAEJCcwPDRGoVT5LjjAXfqbvvGk5CkhAUMCUClDJrCAAAi0CwLDv2hSKf7/auoa2kXlVlUkVMqqhgvJggAImI/Ar8l5C3en70gtTMy6zmlVWXWd+bpHT+YhAJUyD0f0AgIgYL0EdDodp1LXK2qttwrxM6+orb94reJo9vWtJzVf7ExbG58THpu98lDWdwcyl8ZkLI3JuHitou1ZQaXazhA9gAAIWD2BQXP2KpQq9eVyq6/EAgVo6xsvXqv474lLa+Ivhv5+ftxXh/mXSY20fRccaHs6UKm2M0QPIAACVk+Am2p/irto9ZW0rYDGRl1RafW+tOIfjmTP25H2RsQxIyKkUKqGfRHzt29jh38R88F/Ts2MOv35f8+ERJ+dtyPt7fXHuRPblk7T2VCptjNEDyAAAlZP4PmVCQql6sfY9qVS2vrGzCu3NiTlrTyU9WZkimeIirs7X1CZHpiz55+/npiz/dzyg5m7zxapL5ffqmnxa7wblVquk8bGtj4sESpl9X9dKAAEQKDtBJTbziqUqlWHs9relWx7qKytP32p9OfE3M/+e+aFVYmPfxvr1fy7ZkFNenfDia/2ZkQk5CRdvH61vKa1T+Ytq6rjuq1raGwjEKhUGwHidBAAAVsgMGf7OYVS9diSI+/9cmLYFzETfzjKTbJBm042tHk1IAmgsuq6hKxrS2MyQqLPGr9w57/0yCdbTn+65UzM+eLsqxVt1xWWZW/V3Faptt/cD5WS5PODoCAAAvIi8MXONMElhUKp+jU5T165CmVzs1J7Mv/m5pSCL3edn/LzsbGLD7VUzoSVia+uTopMzE3Iuna5rLq1iySh4AK2Km09l0CVtl7gcGtMUKnW0IIvCICAjRL49Y98blYd9kXMIlX67rNF+9KKOcvw0Bi5FV2lrT9zqXTLiUuT1/zxZmSKX9jBljRp1MKDX+xMW3Yg81hOyc1K8V5TUlPXwKVk5LsrE6lCpUwEBTcQAAEbJ2C4qojLvKZQqrxm75G2cm19Y0Zx+c7ThUv2Zby74fhjS44IatKYsENTfj62YHf6bykFJ/NvSPvqrLqGRi7JsqoW77AwkSpUykRQcAMBEGh3BK5X1HJTraGAWY5FY6Pu0o2qzSkFqw5nfbQ5VVCQuMcPPhgaM3v7uU3H8k/m3yhv+XY7y6VqpOfGxts/lM68csuImymH2p1K6XS6urq6Gmwg0GYCdXV1Yk5epvw9w8e8BEqrbt9ObdEbKEoqapMvlnyxM0257exL4UeHGTxdkPtZ0is/Js3efm5DUl7Sxesl1vCMDE5fz1wqbeOgtC+V0mq1+fn5amwgYCYC+fn5Wq141/rb+NeO01tLgNyoVltvtqfQVmsbTl8q3XL80oLd6f+I+GPknSey662ZRi44MOO31GUHMrenai7dqLLGfw9xVyZP5t9sLXY9/3akUo2NjRcuXMjOzi4rK6uurm7zv6TRQbsmUF1dXVZWlp2dfeHChcbGtv4iRO/PErsyIVCtvX0LwD3fqNbQqEsrLFOdvbzsQOY/fz0RsFT4KyWFUvV/PyUvjcnYdaYo88ots9wLLjnDx79pehtySu6NNmbSjlSqpqZGrVZXVeGNZ238zOD0/xGoqqpSq9U1NXjZ6/+Y2FJLW3/7FoAXViWaWNe1W7UJWdciEnI+3XLm+ZUJ3OMB9dZJvgsO/CPijy93nY86XnDmUmllbVvv1TYxN5Hdxi+LUyhVPxzJbmPcdqdSmFDa+InB6XwC3D998KHiM7Gltk6nG73o9k3eghf9tPWN54vKtp7UcJfvRi28/UJFPVl6YVXi5/89E5GQczS76TkOtoTISC2jFjah+3b/BSM+phyCSplCCT4gIEwAKiXMxYas5KJfRfOK59qt2vjMa2viL86MOv308ng9NVIoVZ4hqr9+Ezt948nlBzP3pV3OvV5p0Tsv5Ex68V41x6eNP5mSXqXCw8M9PT1dXFx8fX0TEhIMoUdHRz/55JPdu3fv2LHj2LFjY2Lov7ATrAoTiiFbWNpIAB+qNgKU/+n1d373M2rhAcGn3g0PjXntp+TQ35su352+VHrP32DJH0VrM9xy/BKnUgfSr7T2XL6/4HzOd2D4O2ZvR0VFOTk5RUREqNXq4OBgDw+PgoICvSjBwcFLliw5fvx4VlbW7NmznZycUlNT9Xz0dgWrwoSiRwm7bSeAD1XbGcq8B/KCRLJsevyb2KBNJ1ceyjqQfsVK774Th7lOp3tgzh6FUrXn3OW2RBScz/kdWlal/Pz8pk+fTuL5+PiEhISQXcHG0KFD58+fb3iotra2/M6m0WgYhikvv+uFZlY0oTAMs2PHDsMa780SGxvLMExp6e1fLezYsWPgwIH29vbBwcHr16/v3LnzvXXLP+vChQs9e/a8dautP9/j9ymf9ujRo6OjowXzsaIPlWD+MJpC4D/HChbvVXMPdMBSyRRixGfymj8UStWuM0XEcg8NKVVKq9U6ODhs376d5D1jxgx/f3+ya9hobGzs37//qlWrDA+FhoYyd28yV6ni4uKPPvpowIABzs7O/fr1mzBhwqFDh7i6zKtSWq22uLiY/N6iR48eSqWyqKjo1q1b1dXVV69eNYTZWssrr7yyYMECvbO8vb2dnJwKCwv59oCAAG6UnJ2dBw0aFBYW1tBghl+i6HS60NDQ3r17u7q6BgQEnD9/nh+UtEl08kl57rnnuKPx8fETJkzo3bu3Ifzff/990KBBgrebQ6UIWzRAwJDAlJ+bXqK4I/WuScDQzbhFSpUqKipiGCYpKYmkGBYW5u3tTXYNG0uXLu3WrZvgxNratZROp6vS1lvof0QSDEvgLHl5eX369Bk6dOjWrVszMzPPnz//3XffDR48mDtqOFG21E9r7RUVFQzDHDlypLUnEv+6Ov2ncmk0GicnJ41GQ3xYlk1MTLz//vv/8Y9/LFq0iG8PCAiYNm1acXFxXl7eqlWr7Ozsvv76a77DvbW//vrrjh07RkdHp6WlTZo0qXfv3oILuxs3bhTf2c6fP+/g4LB+/Xou4t69e+fOnRsdHW0Iv6GhoUePHnv37jXMDSplyAQWECAEAtelKJSqrSfvmhzIURMb0qtUcnIyyXXRokVkpiZG0ti8ebO7u/vBgweJpaWGYFV6Ewp5sDy53GzGBvWywLPPPtu3b9/Kykp+CeSiHH+inDVr1qBBg9zc3AYMGDBv3jwiEmfOnPnrX//aoUOHjh07+vr6njhxgmXZ/Pz8CRMmdOnSxd3dfejQoXv2ND0lk1zx4xpkGREbG6t3xW/Xrl2+vr4uLi4DBgz48ssv6+tv/4yDYZjVq1dPnDjR3d39iy++4OfMsux33303evRoPeNbb70VEhKyb98+Ly8vvmYHBAQEBwcT5yeffHLs2LFk994aOp2uV69eRO1qa2s7d+78008/Ge9t+fLlHTt21BsClmX58EkPb7311tSpU8kuaeh9qIgdDRAAAZZl393Q9F75KT8fawsNwfmc36EFv5dq1RW/qKgoNzc3lUrFT66ltmBVehOKhCp148YNOzu7xYsXt5Q/f6JcuHBhUlJSXl7erl27evbsuWTJEu6sYcOGTZkyJSMjIysr67///e+ZM2dYln3++efHjx9/7ty5nJyc3bt3x8fH81VKq9VmZmYyDBMdHV1cXKzVavkqFRMT06lTpw0bNuTk5Bw4cMDT0/PLL7/kYjEM06NHj8jIyJycnPz8fL20X3zxRf6Xi00vQLt1y8PD4/z58w0NDT179uQv3fRU6oUXXhg1apRehyzLPvPMMx4tbIbOOTk5DMPw76mZOHHim2++aejJtwwfPnzatGl8C9fmwydHf/zxR09PT7JLGnofKmJHAwRAgGVZ7u2Lj38b2xYagvM5v0MLqhTLsn5+fkFBQSTekCFDBO+e2Lx5s6urq+k3FAhWpTehSHjFLyUlhWEY/hdyhADXEJwoWZZdunQpmdM7duy4YcMGvRMffPBBIi3kEFlLsSxbWlrKMExs7O0PDV+lHnvsMb5wbty4sXfv3iSfmTNnkg71Gg899JDel1Jr164dMWIE5xYcHPzGG2+QU4hKNTY27tu3z9nZedasWeQoaRQWFma3sBEf0khKSmIYpqjof9/QTps27amnniIOhg1uCFJSUgwPCcL//fff7e3tDb+a0vtQGfYGCwi0ZwKxF64qlKq/WbVKcXeiR0ZGqtXqmTNnenh4cP9UDwkJIRdYNm/e7OjoGB4efucLheKysjLjA2+KShnvwaJHjx07JjgVkqD8o1u3bn3kkUd69uzp4eHh4uJy3333cW6hoaGOjo5PPPHEV199dfHiRc4YERHh6Og4bty4L7744uzZs5zRRJVyd3d3dXUlCxhXV1eGYbgHSjEMs2nTJpKeXsPb23vp0qV845gxY7799lvOcuLECTc3N3IxMyAgwMnJycPDw6l5e+edd9r+zCpOpS5f/t/dru+9997TTz/NT0mv/c9//nP48OF6Rm6XD584HDhwgGGY6upqYuEaUCk9INgFAT6Bk/k3FUrVY0vu/YtwlmUF53N+FMuupViWDQ8PVygUzs7Ovr6+3BUqlmUDAwMDAgK4PAzvywoMDOSnaNgWrEo+E4rpV/z++OMPBweHRYsWnThxIisra8GCBfwbxzMzM5ctWzZ+/HhnZ2eyMrt06dLq1av//ve/Ozk5rVy5kn/Fz/haytXVdcmSJXoLGG71IDhxE+zjxo2bPXs22U1PT2cYxt7e3uHOxjDMjz/+yDkEBAS89dZb2dnZly5dMnJ3n0Wv+FVVVXXq1On7778nOfMbgsVGRUW5u7vz3bi2fD5UhrnBAgKSE0grLFMoVWPCbt+9fG/5CM7n/K4srlL8YOZqC1YlqwnlmWeeMeXuiW+//dbLy4tgeffdd/kqReyTJ09+4YUXyC7XCAkJefDBB01XqXHjxr3zzjt6nXC7ghM38fzwww9ffPFFsvvpp5/6+/un8bZZs2aRC5Xkih/xF2y06oofd/cE+cZOq9Uav3ti/fr1Li4uJSUlgqEFi503b96jjz5q6C+rD5VherCAgLQEMq/cGjRn76NLDrclDcH5nN8hVIpPw2zt3NzcXr16DR06dNu2bVlZWWq1esWKFT4+PlwAMlHu3LnT0dHxt99+u3jx4ooVK7p168apVHV19YcffhgbG5ufn3/06NGBAwdy3+4EBwfHxMTk5uaeOnXKz8/vtddeM12lYmJiHB0dQ0NDz58/r1aro6Ki5s6dq5ePYP27du3q0aMHtzCqq6u77777Vq9ezffMyspiGIa7v8NEleKfbkr766+/7ty58/bt29PS0l5//XX+nehTp07V+7Lz0UcfnTRpkl63FRUVp5s3hmGWLVt2+vRp/mNQAgIC9L57406HSulhxC4ImJ0AVMrsSE3t8PLlyx9++CF3tbNv374TJ04kNzUQlWJZ9l//+tef/vSnDh06TJo0afny5ZxKabXayZMn9+/f39nZuU+fPh999BH3WO6PPvpo4MCB3NdXU6dO5ZYLJn4vxbJsTEzMuHHj3NzcOnXq5Ofnt3btWq4Yfj6G5TU0NPTt25d7vuK2bdvs7e2vXNF/bNeDDz748ccfsyxrIZXiftXbq1cvFxcXbiVH8gwICOBfIubucjxw4ABx4Bp6t+kzDEPOKiwsNPxBGHcWVEoPI3ZBwOwEoFJmR9oeOwwPDzd+T51VQ/n8888F71lnWRYqZdUji+StggBUyiqGSe5J1tfXL1q0SPBxD3JP3YT8li5darg65M6DSpnADy4g0CYCUKk24cPJ7ZwAVKqdfwBQvggEoFIiQEYImyUAlbLZoUVhsiHQ7lTK8IeZshkLJGJ9BKqrq9VqNd4ob30jh4yth0A7UqmGhga1Wt3Sr2SsZ8iQqYwIlJSUqNVqIz9PllGuSAUErJNAO1IplmUvX77MCVV1dXUNNhBoA4Hq6mpOovhPZrLOSQBZg4CsCbQvldLpdJxQqbGBgDkIXL58mf9eEln/rSM5ELBOAu1LpbgxamhoaMO/oXEqCNwmgAt91jnpIWsrI9AeVcrKhgjpggAIgEA7JgCVaseDj9JBAARAQPYEoFKyHyIkCAIgAALtmABUqh0PPkoHARAAAdkTsE2VKisrYxhGo9GUYwMBEAABELBmAhqNhmEYI69ot8r3S3FVMdhAAARAAARsgoBGo2lp1WeVKtXY2KjRaMrKytryDwhO6rAg4xiCBv+zBBqgwSeg18bHgw+k7TTKyso0Gk1jY6NNqVRLxbTKTr0Y2qrerN0ZNPgjCBqgwSeg18bHgw9EBBpWuZbiM7rntghw7zk38U8EDT5z0AANPgG9Nj4efCAi0IBKlfOJt9u2CB81K2ILGvzBAg0+DZZlAYQPRAQa7VelamtrQ0NDa2tr+cTbbRs0+EMPGqDBJ6DXxseDD0QEGu1Xpfig0QYBEAABEJAnAaiUPMcFWYEACIAACDQRgErhcwACIAACICBfAlAp+Y4NMgMBEAABEIBK4TMAAiAAAiAgXwLtQqXCw8M9PT1dXFx8fX0TEhIERyMuLs7X19fFxWXAgAGrV68W9LENI5VGdHT0k08+2b17944dO44dOzYmJsY2ChesgkqDnHX06FEHB4eHHnqIWGyvYQqN2traOXPm3H///c7Ozl5eXpGRkbbHgavIFBqbNm3685//7Obm1qtXr7feequkpMQmacTHx0+YMKF3794Mw+zYsaOlGi00i9q+SkVFRTk5OUVERKjV6uDgYA8Pj4KCAj3Kubm57u7uwcHBarU6IiLCyclp27Ztej62sWsKjeDg4CVLlhw/fjwrK2v27NlOTk6pqam2Ub5eFabQ4E4pKyvz8vJ66qmnbFilTKQxceLEMWPGHDx4MC8vLyUlJSkpSY+qbeyaQiMxMdHe3n7FihW5ubmJiYnDhg176aWXbKN8vSr27t07d+7c6OhoIypluVnU9lXKz89v+vTpBLqPj09ISAjZ5RqzZs3y8fEhxvfff3/s2LFk15YaptDQq3fo0KHz58/XM9rGruk0Jk2aNG/evNDQUBtWKVNo7Nu3r3Pnzjdu3LCND4CRKkyh8c0333h5eZFOVq5c2a9fP7Jrkw0jKmW5WdTGVUqr1To4OGzfvp18YmbMmOHv7092ucZjjz02Y8YMYty+fbujo2NdXR2x2EbDRBr8YhsbG/v3779q1Sq+0TbaptNYt27d6NGj6+vrbVilTKQRFBT0xBNPKJXKPn36DBo06LPPPquurraNzwO/ChNpJCUlOTs779mzR6fTXblyxd/f//333+f3Y3ttIypluVnUxlWqqKiIYRj+RYmwsDBvb2+9T8+gQYPCwsKIMSkpiWGYy5cvE4ttNEykwS926dKl3bp1u3r1Kt9oG20TaWRlZfXo0SMzM5NlWRtWKRNpPP300y4uLs8//3xKSsqePXsUCsXbb79tG58HfhUm0mBZduvWrR06dHB0dGQYZuLEibb3T1s+lqafLrX8vZTlZtF2oVLJycmE9aJFiwYPHkx2ucagQYMWL15MjEePHmUYpri4mFhso8H97VFpkGI3b97s7u5+8OBBYrGlhik0GhoaRo8eTe6msXmVon42xo8f7+rqSl5YFx0dbWdnZ3vLKVM+GyzLpqen9+7de+nSpWfPno2JiXnwwQffeecdW/obMazFuEpZaBa1cZUyceVuubWq4TBLaDGRBpdhVFSUm5ubSqWSMGGLhjaFRmlpKcMwDnc2Ozs7bvfw4cMWzU38zk2hwbLsm2++OXDgQJKeWq1mGCYrK4tYbKNhIo0pU6a8+uqrpOTExESbvAZDCjS+lrLcLGrjKsWyrJ+fX1BQEAE9ZMgQwbsnhgwZQnymT59uw3dPUGmwLLt582ZXV1cjt5wSVlbdoH42Ghsb03hbUFDQ4MGD09LSKisrrbpwweSpNFiWXbNmjZubW0VFBdfDzp077e3tbW8tZeK88fLLL7/22msEZnJyMsMwRUVFxGJ7DSNrqVmzZlloFrV9leLuKI2MjFSr1TNnzvTw8MjPz2dZNiQkZOrUqdzHiLuH8pNPPlGr1ZGRkTZ/J7pxGps3b3Z0dAwPDy++s5ErPDb2V2fKZ4Nfsg1f8WNZ1hQaFRUV/fr1e/XVV9PT0+Pj4wcNGvTee+/xEdlM2xQa69evd3R0/PHHH3Nyco4ePTp69Gg/Pz+bIcAvpKKi4nTzxjDMsmXLTp8+zf2eR5xZ1PZVimXZ8PBwhULh7Ozs6+sbHx/P0Q8MDAwICCAjERcXN3LkSGdnZ09PT/I9BDlqSw0qjYCAAObuLTAw0JYI8Guh0uA727ZKmfiXkpGR8eSTT7q5ufXr1+/TTz+1yYUUN+imfDZWrlw5dOhQNze33r17v/HGG4WFhfwPjM20Y2Nj754SGG5OEGcWbRcqZTOfFRQCAiAAAu2NAFSqvY046gUBEAABayIAlbKm0UKuIAACINDeCECl2tuIo14QAAEQsCYCUClrGi3kCgIgAALtjQBUqr2NOOoFARAAAWsiAJWyptFCriAAAiDQ3ghApdrbiKNeEAABELAmAlApaxot5AoCIAAC7Y0AVKq9jTjqNUZAoVAsX76c8zDyyLKSkpL77rsvLy/PWF+tPBYYGPjiiy8KnsT98r+0tFTwaKuMJnYVEBAQHBzcqp7Xr1/fuXPnVp2i5/zZZ599/PHHekbsggBUCp8B6yAQGBjIPaPFwcGhf//+06dPv3nzptlTN1GlPvvsM/KOhry8PPLwmC5dujz22GNxcXH3kFhZWRnRIT2R0Gq1xcXFOp3uHrrVO0Vylbp8+fLrr7/u7e1tZ2enJ4RXr17t0KFDbm6uXs7YbecEoFLt/ANgNeUHBgY+88wzxcXFGo1m//79ffv2nTx5stmzN0Wlqquru3TpQl7FxKnUoUOHiouLz549+/zzz7u7u7dxqtVTKTOWKblK5eXlzZgx45dffhkxYoSeSrEs+/LLL8+aNcuM9aIrGyAAlbKBQWwXJehdEPv000+7detGKl+3bp2Pj4+Li8vgwYPDw8OJXaPRTJo0qWvXru7u7qNGjTp27BjLshcvXpw4cWKPHj08PDxGjx7Nf82jKSoVHR3dvXt3EoJTqdOnT3OWwsJChmF++uknlmXj4uL+8pe/ODs79+rVS6lU1tfXcz5bt24dPny4q6trt27dnnjiCe49IKRAsmrklmh5eXlEWsrKylxdXfft20eiR0dHu7u7c6/SKCwsfO2117p06dKtW7eJEycKXpAkXbEsW1JSMnny5L59+7q5uQ0fPnzz5s2k24CAgA+bt86dO3fr1m3u3LlkJafVav/1r3/16dPH3d3dz88vNjaWO6u1V/wElXjDhg39+/cnaaABAk0vtQIFELAKAmQSZ1k2Jydn6NChPXv25DJfu3Zt7969o6Ojc3Nzo6Oju3XrtmHDBpZlKyoqvLy8HnvsscTExOzs7C1btnALoDNnzvz000/nzp3LysqaO3euq6sr9xoClmVNUang4OBnnnmGQNNTqZs3bzIMs2rVqsLCQnd39w8++CAjI2PHjh3du3cPDQ1lWfby5cuOjo7Lli3Ly8s7d+5ceHg4pzGkwLKysocffnjatGnci1MaGhr40vLKK69MmTKFRH/l/9s725CmvjiOn3X36B5s1SSykRhtLJIJVliQs7SESlSsFy3QCiWdPcfIQhb0AMUopKcXiyRQe5AYEhkEgTGMHiS2LrU2NjNLMCpfjPTFZOvE/3/ocNrU9N//xfT+7qtzzz3n3PP7nMP5cn73dzmVlTt27MAYj46OLlu2bM+ePTzP+/1+q9VqNBqj0SgtSRJsU4ODg06n0+v19vX1Xbp0ieM4ouIYY4vFolKpDh48GAgE2tra0tLSXC4XacFqta5du9bj8YTDYafTKZPJyCmIrEoRJlTAEvpAbsdVKXKsIjlbZ9xakClAAqBSAhz0GWlydXU1x3FKpVIul5NNxsWLF4kler2e3QecPn16zZo15Mg+tVo9PDw8ucHLly+/fPkyKTMVlSorK6MfpTDGrEqNjIzs3buX4zie50+cOGE0GukW5OrVqyqVKh6Pv3r1CiGUvBBTlSIiwXrDWGlxu90qlWp0dBRjHIlE5HJ5V1cXxvjGjRvs66LRqEKhePToUYLtbFMJjzZv3nz06FGSabFYTCYT7fyxY8fIAXfhcFgkErEH/RUVFR0/BWovBgAABY1JREFUfhxjzKrU4OCg0Wh88eJFwivY23FVKhKJIIT+24c9tnFIzyYCoFKzaTRnsy3V1dXFxcWhUOj169f79+8vKSkhDrQvX74ghBQKhfLXJZPJMjIyMMb19fUFBQXJUEZGRux2u8lkSk9PVyqVc+bMsdvtpNhUVGrTpk02m402S1SKdEAkEi1atKi1tRVjXFFRsWvXLlrM5/MhhAYGBmKxWFFRkVqt3rZtm8vlojEgU1SpaDQ6d+7c27dvY4xbWlp0Oh3hYLPZiIr/wqAUiUTXrl2jHSAJVqVisdiZM2dycnLmzZunVCrFYvH27dtJMYvFsnv3blq3s7NTLBbHYrGOjg6EEH0FqUXOq2VVilacJDGuSo2NjSGEHj58OElFeCQ0AqBSQhvxmWovu4hjjAsLC5uamjDGnz9/Rgi1tbWFmIsELxw5cmRclaqvr8/Ozna73TzPh0Ihs9lMNy5TUSmr1UqcbAQlUan79++Hw+Fv375RvuXl5exC7/V6EUIfP37EGP/48aOnp8fhcOTk5Oh0OtJb1sCEFZyVFoxxTU1NaWkpxri4uHjfvn3kjXV1datXr2YY/JNMPmSZber8+fPz589vbW31+XyhUGjLli00FH4ilbpz5w7HcYFAgH3R0NBQwl6KQpgkkWAjKUlGs7e3d5KK8EhoBEClhDbiM9VedhHHGHd3d8vlcuJ6yszMPHXqVLJhN2/e1Gg0yR6/FStW0PLfv39PT0+flko5nU6z2Uxfx3r8aCbGONnjp1ar4/E4WyYWi2VmZl64cAFjzBq4ceNGKj/EWIQQjVPv7u6WSCRv3rzhOO7Zs2ekQZfLpdVqI5EI235ymlWprVu3UtdlPB43GAysShEXH2mhsbGR3AaDQYSQx+NJbvl/2Us9fvxYIpHM4vN/k7lBzh8JgEr9EREUSAkC7CJOOpSXl9fQ0IAxvn79ukKhaG5uDgaDPM+3tLSQdT8ajRoMhnXr1vX09PT19d27d49ET5SXl+fm5nq9Xp/PV1paqlarp6VSPM+LxWLqqZtIpUj0RENDw7t37zo7O2n0xPPnz8+ePdvb2zswMNDR0SGVSomDizWwtrZ21apV/f39X79+jcfjrLSQrdjixYvNZvPSpUvp2JDoicLCQo/H8/79+ydPnhw4cODTp0+0AEmwTR06dEiv1z99+tTv99fU1Gg0GlalVCrV4cOHA4HArVu3lEoliVrEGO/cuTMrK4vEqrx8+fLcuXPkwxirUpN/l/L+e+Xl5VmtVq/X+/btW9rJkydPbtiwgd5CAghAjB/MgRlDgF3ESafb29ulUinxobW3t+fm5kqlUq1WW1BQ4Ha7SZkPHz5UVlZqNJq0tLSVK1eS7/n9/f3r169XKBR6vf7KlSus62kqHj+McX5+Pl21J1KpiSLR/X5/SUmJTqeTyWQGg4EGbrAGBoPB/Px8hUKBEGIj0elo2e12hJDD4aA5GOOhoaGqqqoFCxbIZLLs7Oza2trkrRWrUsPDw2VlZSqVKiMjo6mpqaqqilUpm81WV1en0Wi0Wm1jYyONpBgbG3M4HFlZWRKJZOHChRUVFTzPJ3j8CJOJYvzoT9AksWTJEmqFwWAgn9xoDiSAAOylYA4AgWkT6OrqMplMCe67abcCFX4n8ODBA5PJRP8q+/0h3AmXAKiUcMceLP8bAs3NzWQb9zeNQF2WwN27d+kPW2w+pAVOAFRK4BMAzAcCQAAIpDQBUKmUHh7oHBAAAkBA4ARApQQ+AcB8IAAEgEBKEwCVSunhgc4BASAABAROAFRK4BMAzAcCQAAIpDQBUKmUHh7oHBAAAkBA4ARApQQ+AcB8IAAEgEBKEwCVSunhgc4BASAABAROAFRK4BMAzAcCQAAIpDQBUKmUHh7oHBAAAkBA4AR+AmMyZiIfkvwaAAAAAElFTkSuQmCC;" vertex="1" parent="1">
                    <mxGeometry x="1090.94" y="133.37" width="78.75" height="60" as="geometry"/>
                </mxCell>
                <mxCell id="22" value="" style="endArrow=classic;html=1;fontColor=#080808;strokeWidth=3;" edge="1" parent="1">
                    <mxGeometry width="50" height="50" relative="1" as="geometry">
                        <mxPoint x="1040" y="179.3699999999999" as="sourcePoint"/>
                        <mxPoint x="1070" y="149.3699999999999" as="targetPoint"/>
                        <Array as="points"/>
                    </mxGeometry>
                </mxCell>
                <mxCell id="23" value="ROC and PR curves are calculated" style="text;html=1;strokeColor=none;fillColor=none;align=center;verticalAlign=middle;whiteSpace=wrap;rounded=0;" vertex="1" parent="1">
                    <mxGeometry x="1060" y="202.32" width="137.59" height="39.05" as="geometry"/>
                </mxCell>
            </root>
        </mxGraphModel>
    </diagram>
</mxfile>